<?xml version="1.0" encoding="UTF-8" standalone="no"?>
<svg xmlns="http://www.w3.org/2000/svg" xmlns:xlink="http://www.w3.org/1999/xlink" width="528.000mm" height="297.000mm" viewBox="0.000000 0.000000 528.000000 297.000000" stroke-linejoin="round" stroke-linecap="round" fill="none" fill-rule="evenodd"><desc>Composer Export</desc><script type="text/ecmascript"><![CDATA[
if(typeof(top) != "undefined")
{
	top.ShowPaper = ShowPaper;
}
function ShowHotSpot(evt,hotspotid)
{
	var svgDocument = evt.target.ownerDocument;
	var strId = "hotspot."+hotspotid;
	var hotspot = svgDocument.getElementById(strId);
	if(hotspot)
		hotspot.setAttribute("opacity",".5");
}
function HideHotSpot(evt,hotspotid)
{
	var svgDocument = evt.target.ownerDocument;
	var strId = "hotspot."+hotspotid;
	var hotspot = svgDocument.getElementById(strId);
	if(hotspot)
		hotspot.setAttribute("opacity","0");

	var toolTip = svgDocument.getElementById('ToolTip');
	if(toolTip)
		toolTip.setAttribute("visibility","hidden");
}
function ShowToolTip(evt,hotspotid,strTooltip)
{
	if(strTooltip=="")
	return;

	// change text
	var svgDocument = evt.target.ownerDocument;
	var tiptext = svgDocument.getElementById('ToolTipText');
	if( !tiptext )
	return;
	tiptext.firstChild.nodeValue = " " + strTooltip + "  " ;

	// show tooltip before, else some refresh issue

	var toolTip = svgDocument.getElementById('ToolTip');
	if(!toolTip)
	return;

	toolTip.setAttribute("visibility","visible");
	toolTip.setAttribute("opacity",".95");

	// move tooltip
	// get viewbox

	var root = svgDocument.documentElement;
	var vbox = (root.getAttribute("viewBox")).split(' ');
	var x0 = parseFloat(vbox[0]);
	var y0 = parseFloat(vbox[1]);
	var vboxW = parseFloat(vbox[2]);
	var vboxH = parseFloat(vbox[3]);

	// get default width of svg

	var strW = root.getAttribute("width");
	var svgW = parseFloat(strW);
	if(strW.indexOf('mm') != -1)
	svgW *= 3.779;

	var strH = root.getAttribute("height");
	var svgH = parseFloat(strH);
	if(strH.indexOf('mm') != -1)
	svgH *= 3.779;  	// 96 dpi  -> 96/25.4 = 3.779

	// update the viewbox / width / height if svg is embedded in html with zoom fit all
	var realx0 = x0;
	var realy0 = y0;
	var realvboxW = vboxW;
	var realvboxH = vboxH;
	var realsvgW = svgW;
	var realsvgH = svgH;

	if ((typeof(top) == "undefined") || (typeof(top.svgctl1) != "undefined")) // embedded in html
	{
		// get window size in pxl

		svgW = window.innerWidth;
		svgH = window.innerHeight;

		// calculate real viewbox

		realsvgW = svgW;
		realsvgH = svgH;
		if((svgW / svgH) > (vboxW / vboxH))
		{
			realvboxW = (vboxH * svgW) / svgH;
			realvboxH = vboxH;
			realx0 = x0 - (realvboxW - vboxW)/2 ;
		}
		else
		{
			realvboxH = (vboxW * svgH) / svgW;
			realvboxW = vboxW;
			realy0 = y0 - (realvboxH - vboxH)/2 ;
		}
	}

	// get user zoom/pan

	var newScale = root.currentScale;
	var translation = root.currentTranslate;

	// transform pxl to user unit

	var xPos = (((evt.clientX+10- translation.x)/newScale) * realvboxW)/realsvgW  + realx0 ;
	var yPos = (((evt.clientY+5- translation.y)/newScale) * realvboxH)/ realsvgH  + realy0 ;
	var scaleForWidth = ( (1 / newScale) * realvboxH) / realsvgH;

	// move tooltip

	toolTip.setAttribute("transform", "translate(" + xPos + "," + yPos + ")" );

	// resize tooltip

	var fontsize = 12;
	tiptext.setAttribute("font-size",fontsize*scaleForWidth);
	tiptext.setAttribute("y", fontsize*scaleForWidth);
	var tipBG = svgDocument.getElementById('ToolTipBG');
	var outline = tiptext.getBBox();
	if(tipBG)
	{
		tipBG.setAttribute("stroke-width", 1*scaleForWidth);
		tipBG.setAttribute("width", Number(outline.width) );
		tipBG.setAttribute("height", Number(outline.height) + fontsize*.5*scaleForWidth );
	}
	var ToolTipShadow = svgDocument.getElementById('ToolTipShadow');
	if(ToolTipShadow)
	{
		ToolTipShadow.setAttribute("width", Number(outline.width) );
		ToolTipShadow.setAttribute("height", Number(outline.height) + fontsize*.5*scaleForWidth );
		ToolTipShadow.setAttribute("x", 3*scaleForWidth);
		ToolTipShadow.setAttribute("y", 3*scaleForWidth);
	}
}
function ShowPaper()
{
  var svgDocument = getDocument();
  var paper = svgDocument.getElementById("paperID");
  if(paper)
  {
    paper.setAttribute("transform","scale(1)");
    paper.setAttribute("opacity","1");
    paper.setAttribute("visibility","visible");
  }
  var svg = svgDocument.getRootElement();
  if(svg)
  {
    svg.setAttribute("width","538.000mm");
    svg.setAttribute("height","307.000mm");
    svg.setAttribute("viewBox","-5.000000 -5.000000 538.000000 307.000000");
  }
}
]]></script><defs/><g><path style="fill:#ffffff" d="M527.82,296.92L0.11,296.92L0.11,0.11L527.82,0.11z"/><path style="fill:#008001" d="M174.74,178.34L178.22,179.49L190.53,183.86L195.71,185.35L196.31,185.79L206.89,189.21L205.30,191.84L205.07,195.33L205.21,201.28L206.42,203.16L207.99,204.30L212.32,206.25L213.49,206.46L215.03,206.62L216.60,206.61L220.61,205.91L224.19,204.09L224.80,203.43L225.18,206.16L225.17,207.69L225.35,210.53L226.63,211.26L226.92,211.68L254.12,231.35L255.26,231.60L276.56,233.13L279.54,233.70L280.66,236.04L281.56,236.41L284.13,236.84L285.19,239.26L288.45,239.88L289.45,242.35L291.62,242.98L292.77,243.20L293.06,243.40L294.01,245.62L294.08,245.85L295.09,245.91L296.54,246.10L297.70,246.87L298.31,248.68L298.13,248.94L288.69,254.65L282.21,254.62L263.89,253.45L263.52,256.56L262.63,267.94L260.98,266.96L214.65,232.41L212.60,230.60L212.03,230.51L209.50,228.32L203.51,223.95L201.76,222.91L165.02,210.11L164.01,210.27L163.85,209.80L154.35,206.58L147.61,203.94L146.87,203.58L146.29,203.76L145.33,202.76L142.99,200.46L142.18,198.56L142.03,187.59L142.24,181.76L142.61,180.13L144.78,177.64L144.97,177.53L145.11,180.63L145.37,181.76L146.10,183.04L148.38,185.01L151.47,186.56L154.32,187.20L154.47,187.45L155.47,187.51L160.53,187.30L164.85,185.73L167.57,183.81L171.71,177.82L172.49,177.84z"/><path style="fill:#fffe02" d="M247.94,85.94L255.27,87.32L262.48,89.86L269.41,94.16L270.33,94.29L313.66,91.19L322.82,91.02L327.07,92.18L329.80,93.71L331.74,96.42L331.77,97.84L331.38,99.02L330.40,99.89L328.13,101.09L324.24,101.85L282.47,104.95L280.54,105.33L275.13,105.72L274.84,107.26L277.58,108.03L280.63,109.56L280.28,110.47L274.73,110.35L274.34,112.39L276.83,114.16L276.96,114.86L276.71,114.97L274.35,114.96L273.45,121.72L271.21,121.46L271.03,120.27L270.99,118.83L270.48,118.77L269.81,120.13L269.19,125.62L268.40,125.82L263.08,123.73L262.91,123.36L262.92,121.60L261.59,121.97L261.05,128.34L259.99,128.43L255.64,125.63L256.30,118.84L253.82,119.25L253.80,122.18L253.64,123.02L251.91,123.50L251.66,125.18L251.45,129.99L250.91,130.12L248.97,128.51L248.77,128.40L247.52,126.39L248.21,119.64L245.34,119.64L244.69,121.31L243.41,123.13L241.45,123.49L240.96,129.87L240.64,129.98L239.49,128.40L238.93,126.10L239.43,119.50L239.29,119.23L237.99,119.24L237.72,120.53L237.39,125.72L236.31,125.63L236.60,119.25L235.44,120.20L233.09,121.70L232.69,123.24L232.43,128.71L230.77,128.57L230.44,128.01L230.38,127.00L230.20,126.87L230.22,125.31L230.38,122.70L229.78,124.23L228.98,124.09L228.21,123.68L228.44,117.28L227.69,117.40L223.25,119.31L223.23,119.73L224.69,119.99L226.59,120.25L227.12,121.06L226.95,121.40L224.97,122.09L221.34,123.13L221.70,124.53L221.75,124.79L223.18,124.84L226.94,125.31L229.01,126.12L228.91,126.86L228.73,126.98L222.11,128.14L222.24,129.72L228.59,131.59L228.53,132.27L226.79,132.80L220.95,132.74L220.56,133.15L220.19,134.44L221.88,135.11L225.38,137.40L225.27,137.81L220.96,138.19L220.28,144.59L219.88,144.60L219.78,144.31L219.96,142.04L219.65,142.30L218.66,142.85L218.14,149.61L217.35,149.80L212.04,148.11L211.86,147.32L211.83,146.29L210.90,146.25L210.48,146.67L210.04,153.47L206.06,151.70L204.58,150.80L204.20,150.36L204.47,143.59L202.36,143.98L201.95,144.36L202.38,145.79L202.19,148.52L200.58,148.76L200.22,154.59L199.87,155.46L199.20,155.20L197.14,153.66L196.40,152.48L196.08,152.31L195.74,151.95L195.99,151.50L195.98,145.15L193.11,145.15L192.89,147.25L191.71,149.16L189.63,149.40L189.49,156.18L189.19,156.28L187.47,153.91L187.47,146.71L172.25,169.93L167.19,177.24L164.25,178.94L160.65,179.99L154.56,179.96L154.32,187.20L151.47,186.56L148.38,185.01L146.10,183.04L145.37,181.76L145.11,180.63L144.97,177.53L145.28,172.35L146.89,169.32L152.81,160.50L153.13,159.82L154.46,158.33L160.39,149.58L159.66,148.92L159.65,146.95L159.68,144.29L159.96,141.78L161.17,139.90L161.50,136.97L160.38,137.16L154.79,137.77L154.17,139.08L153.86,144.67L153.14,144.22L153.04,141.15L153.09,139.62L153.42,136.79L157.28,134.34L156.94,132.42L149.82,132.36L149.68,139.14L149.38,139.24L149.10,138.63L149.00,135.37L149.16,131.21L148.77,133.33L147.83,133.46L147.86,125.46L148.51,125.22L149.53,125.11L149.10,124.79L148.82,120.66L150.17,119.62L152.27,119.40L152.41,116.10L153.24,114.57L154.69,114.39L155.47,114.62L157.43,114.79L158.10,114.86L159.19,115.19L158.46,114.11L158.71,110.75L159.46,110.33L160.80,110.23L163.89,111.00L164.61,111.55L166.56,112.06L166.63,109.86L166.62,109.08L166.70,107.21L168.17,106.89L170.04,107.65L173.18,109.58L175.09,109.34L175.31,109.08L175.49,107.13L175.52,106.35L176.05,105.21L177.92,105.12L180.64,107.20L181.26,108.04L182.52,108.22L184.38,108.16L184.46,107.56L185.89,104.69L186.09,104.42L187.88,104.52L189.05,106.06L189.96,107.93L190.04,108.16L191.05,108.23L193.12,108.03L195.93,105.43L197.89,105.33L198.51,106.78L198.53,109.37L199.14,109.40L199.94,109.56L201.38,109.73L201.51,109.53L203.56,108.05L204.59,107.83L204.85,107.78L204.86,104.77L205.14,104.16L206.92,103.57L208.49,103.22L211.03,102.76L211.28,101.75L211.46,98.22L213.97,94.07L214.77,92.94L220.59,89.09L227.38,86.72L227.82,86.57L236.30,85.38L245.59,85.56z"/><path style="fill:#3d45cc" d="M246.39,138.37L249.72,139.37L251.65,140.53L253.60,142.83L253.64,145.04L252.82,146.47L251.32,147.67L246.89,149.42L244.52,150.92L224.56,186.27L224.60,189.24L225.74,190.93L235.24,173.75L235.53,173.56L236.69,173.75L238.26,173.96L239.78,174.14L243.29,174.14L247.28,173.02L250.13,171.70L249.39,172.81L244.17,174.94L242.40,176.27L225.17,207.69L225.18,206.16L225.42,202.69L225.97,201.15L226.35,195.70L226.51,192.32L226.18,194.95L225.58,195.79L223.25,197.72L220.22,198.95L214.00,199.30L213.41,206.15L212.32,206.25L207.99,204.30L206.42,203.16L205.21,201.28L205.07,195.33L205.30,191.84L206.89,189.21L209.49,187.44L214.19,185.57L215.68,184.36L222.70,172.12L230.04,159.61L230.13,159.04L233.91,152.64L233.70,147.76L234.15,142.06L234.36,141.62L234.69,141.15L236.56,139.49L239.79,138.37L241.34,138.18L242.89,138.00z"/><path style="fill:#373eb7" d="M224.56,186.27L244.52,150.92L246.89,149.42L251.32,147.67L252.82,146.47L253.64,145.04L253.22,151.89L252.44,153.42L250.71,154.79L246.90,156.40L244.33,157.69L242.57,160.50L239.11,166.78L235.53,173.56L235.24,173.75L225.74,190.93L224.60,189.24z"/><path style="fill:#e5e401" d="M262.91,123.36L262.71,125.71L262.53,127.64L261.85,128.36L261.05,128.34L261.59,121.97L262.92,121.60z"/><path style="fill:#e5e401" d="M226.79,132.80L228.53,132.27L228.67,133.83L228.48,134.97L228.28,138.09L227.83,139.72L225.61,139.75L225.56,139.98L225.36,140.75L225.17,143.48L225.01,144.56L224.33,145.12L223.16,145.12L219.80,145.15L219.40,149.31L218.54,149.81L218.14,149.61L218.66,142.85L219.65,142.30L219.78,144.31L219.88,144.60L220.28,144.59L220.96,138.19L225.27,137.81L225.38,137.40L221.88,135.11L220.19,134.44L220.56,133.15L220.95,132.74z"/><path style="fill:#89c2d2" d="M199.87,155.46L200.70,155.83L201.90,155.77L202.93,156.02L230.13,159.04L230.04,159.61L222.70,172.12L215.52,171.44L215.32,173.17L214.38,174.54L209.35,177.25L207.92,179.30L195.71,185.35L190.53,183.86L178.22,179.49L186.72,166.18L187.18,165.87L188.65,166.78L192.99,168.75L194.02,168.78L193.80,168.57L194.27,155.21L199.20,155.20z"/><path style="fill:#89c2d2" d="M236.69,173.75L235.53,173.56L239.11,166.78L242.57,160.50L246.91,159.89L274.69,146.28L276.85,144.68L277.01,145.04L276.05,154.31L275.86,156.27L275.64,157.68L275.15,158.34L272.68,160.21L272.18,160.49L266.48,163.31L260.68,166.21L255.30,168.94L251.77,171.03L250.98,171.22L250.13,171.70L247.28,173.02L243.29,174.14L239.78,174.14L238.26,173.96L238.12,173.79z"/><path style="fill:#000020" d="M263.37,128.13L261.85,128.36L262.53,127.64z"/><path style="fill:#000020" d="M225.60,142.61L227.84,142.82L225.17,143.48L225.36,140.75z"/><path style="fill:#000020" d="M276.23,154.69L275.86,156.27L276.05,154.31z"/><path style="fill:#000020" d="M260.68,170.48L259.11,170.27L260.59,170.17z"/><path style="fill:#98d8ea" d="M160.92,47.65L157.53,48.47L128.66,59.43L125.99,61.78L124.00,65.60L124.02,78.81L163.98,63.36L170.95,68.17L168.34,68.59L172.11,68.76L173.53,68.97L175.47,69.74L176.82,71.15L176.64,73.00L175.46,74.12L173.12,75.27L169.89,75.90L169.15,76.33L169.13,79.17L173.41,79.04L175.69,78.23L177.03,76.86L177.23,75.44L177.88,72.64L179.18,73.48L179.32,74.02L179.99,74.02L180.26,73.81L215.81,82.08L219.95,82.89L225.40,85.95L227.38,86.72L220.59,89.09L214.77,92.94L213.97,94.07L211.46,98.22L211.28,101.75L211.03,102.76L208.49,103.22L207.17,102.24L203.32,100.68L201.38,100.33L201.12,100.10L201.79,87.15L195.45,87.16L193.49,87.52L189.79,89.62L188.98,91.12L188.98,93.37L189.40,94.48L195.71,99.86L196.46,100.47L198.91,105.18L198.51,106.78L197.89,105.33L195.93,105.43L193.12,108.03L191.05,108.23L189.96,107.93L189.05,106.06L187.88,104.52L186.09,104.42L186.12,103.28L186.31,101.81L185.96,102.47L185.77,102.61L179.55,103.41L179.69,104.14L180.49,104.56L182.45,106.47L182.35,106.87L180.64,107.20L177.92,105.12L176.11,104.96L176.05,105.21L175.52,106.35L174.91,106.48L174.91,107.08L175.31,109.08L175.09,109.34L173.18,109.58L170.04,107.65L168.17,106.89L166.70,107.21L166.45,107.26L166.62,109.08L166.63,109.86L166.05,110.33L163.89,111.00L160.80,110.23L160.80,107.27L156.50,108.93L156.26,114.38L155.47,114.62L154.69,114.39L154.95,108.15L155.31,106.46L154.94,104.91L149.41,105.31L149.55,114.61L152.41,116.10L152.27,119.40L150.17,119.62L148.82,120.66L148.51,125.22L147.86,125.46L147.83,133.46L148.75,133.97L149.00,135.37L149.10,138.63L149.38,139.24L149.43,139.51L150.85,139.54L153.09,139.62L153.04,141.15L152.59,141.28L152.54,141.63L153.14,144.22L153.86,144.67L154.67,144.98L157.82,144.75L159.68,144.29L159.65,146.95L159.49,147.10L159.66,148.92L160.39,149.58L154.46,158.33L153.13,159.82L152.54,159.82L152.81,160.50L146.89,169.32L145.28,172.35L144.97,177.53L144.78,177.64L142.61,180.13L142.24,181.76L141.88,184.88L141.04,184.20L140.40,184.17L139.49,183.45L139.32,165.16L139.89,159.00L139.26,158.64L136.81,157.17L136.44,156.65L136.44,152.77L137.41,152.10L139.25,151.90L140.71,151.84L140.70,151.42L140.12,151.22L139.90,147.47L137.42,147.48L136.27,147.87L134.70,149.40L133.18,150.20L132.95,153.98L131.00,152.90L130.62,152.03L130.61,148.09L131.35,147.20L139.08,143.73L139.52,143.00L139.87,135.65L140.44,135.29L141.09,135.09L140.40,134.68L139.50,133.94L137.54,128.95L132.96,114.47L132.93,113.45L132.77,113.30L130.21,105.00L129.43,104.98L124.79,101.80L123.90,101.81L123.67,113.18L122.07,112.27L121.44,112.24L120.88,111.54L120.58,109.86L120.58,99.77L121.18,97.59L122.74,96.44L129.18,93.91L129.42,93.85L129.79,89.45L129.42,87.55L129.20,87.46L123.27,83.26L120.91,78.66L120.57,77.38L120.53,75.55L120.37,75.41L120.36,65.36L120.91,62.51L123.09,59.27L125.56,57.11L130.44,55.02L132.57,52.12L134.35,50.81L136.67,49.65L139.75,48.47L143.38,48.46L144.49,49.28L146.35,49.27L154.83,46.15L156.24,45.94L157.43,45.93L158.47,46.15z"/><path style="fill:#98d8ea" d="M273.45,121.72L274.99,121.94L275.31,122.61L275.46,124.52L275.65,126.49L275.86,128.39L275.67,129.96L273.41,130.06L268.29,128.53L264.16,128.11L263.37,128.13L262.53,127.64L262.71,125.71L263.08,123.73L268.40,125.82L269.59,125.83L270.44,125.31L270.66,124.16L270.81,122.23L271.21,121.46z"/><path style="fill:#98d8ea" d="M259.99,128.43L256.71,130.23L255.50,132.12L254.73,139.12L255.14,141.68L255.90,142.47L258.27,144.35L261.45,145.51L263.02,145.71L264.15,145.92L266.49,145.90L269.34,145.58L273.69,143.35L276.65,142.08L277.19,142.65L277.20,143.10L276.85,144.68L274.69,146.28L246.91,159.89L242.57,160.50L244.33,157.69L246.90,156.40L250.71,154.79L252.44,153.42L253.22,151.89L253.64,145.04L253.60,142.83L251.65,140.53L249.72,139.37L246.39,138.37L242.89,138.00L245.11,136.42L249.39,132.94L248.63,131.10L248.59,130.72L248.77,128.40L248.97,128.51L250.91,130.12L251.45,129.99L251.80,130.08L252.78,130.22L252.89,129.98L253.43,128.44L253.61,126.46L254.12,125.99L255.25,125.77L255.64,125.63z"/><path style="fill:#e5e401" d="M275.13,105.72L280.54,105.33L282.47,104.95L324.24,101.85L328.13,101.09L330.40,99.89L331.38,99.02L331.55,99.39L331.17,102.54L330.92,103.51L330.01,106.08L326.20,108.06L323.73,108.61L306.73,109.90L281.16,111.79L280.67,111.48L280.49,113.33L280.13,116.44L279.89,117.10L277.05,117.31L276.63,121.08L276.55,121.38L275.73,121.87L274.99,121.94L273.45,121.72L274.35,114.96L276.71,114.97L276.96,114.86L277.18,116.71L277.18,114.98L276.96,114.86L276.83,114.16L274.34,112.39L274.73,110.35L280.28,110.47L280.63,109.56L277.58,108.03L274.84,107.26z"/><path style="fill:#e5e401" d="M201.95,144.36L202.36,143.98L204.47,143.59L204.20,150.36L203.42,150.75L202.51,151.09L202.20,153.56L201.79,155.48L200.70,155.83L199.87,155.46L200.22,154.59L200.58,148.76L202.19,148.52L202.53,149.97L202.54,145.93L202.38,145.79z"/><path style="fill:#e5e401" d="M187.47,153.91L186.99,154.08L182.10,161.70L181.86,161.77L181.47,162.45L172.05,177.15L171.71,177.82L167.57,183.81L164.85,185.73L160.53,187.30L155.47,187.51L154.32,187.20L154.56,179.96L160.65,179.99L164.25,178.94L167.19,177.24L172.25,169.93L187.47,146.71z"/><path style="fill:#3d45cc" d="M350.65,122.75L353.78,124.26L355.72,126.97L355.76,128.80L355.36,129.57L354.38,130.45L352.11,131.65L349.77,132.02L345.51,131.98L344.57,138.79L340.58,137.84L337.65,137.21L337.59,136.95L337.94,136.42L338.71,130.47L331.20,130.47L276.65,135.09L274.74,135.89L272.43,137.45L269.73,138.62L263.62,139.09L263.02,145.71L261.45,145.51L258.27,144.35L255.90,142.47L255.14,141.68L254.73,139.12L255.50,132.12L256.71,130.23L259.99,128.43L261.05,128.34L261.85,128.36L263.37,128.13L264.16,128.11L268.29,128.53L273.41,130.06L275.77,130.26L277.70,130.04L309.01,127.54L311.25,127.42L310.61,127.15L310.94,125.62L311.23,125.76L311.99,126.99L313.65,127.16L333.01,125.63L335.86,125.07L339.33,122.74L343.43,121.74L346.96,121.73L347.35,121.92L347.33,122.23L344.59,122.50L343.67,122.85L342.59,123.76L342.37,125.32L342.55,127.37L343.35,128.12L346.15,129.12L349.02,128.95L350.29,127.92L350.52,126.87L350.75,125.69L350.29,124.28L349.12,123.12L347.32,122.50L347.33,122.23L348.50,122.11z"/><path style="fill:#89c2d2" d="M230.22,125.31L230.20,126.87L230.44,128.01L230.77,128.57L232.43,128.71L235.16,126.94L235.16,130.24L234.51,130.50L231.60,131.89L229.07,133.09L228.88,131.49L229.05,128.81L229.22,126.21L229.01,126.12L226.94,125.31L227.14,124.29L227.77,124.06L228.98,124.09L229.78,124.23z"/><path style="fill:#ffffff" d="M305.78,117.46L305.97,118.34L305.57,119.07L278.49,121.14L276.63,121.08L277.05,117.31L279.89,117.10L280.13,116.44L280.49,113.33L281.16,111.79L306.73,109.90z"/><path style="fill:#ffffff" d="M231.75,132.65L232.00,133.80L232.72,135.09L235.79,137.05L238.63,137.80L239.79,138.37L236.56,139.49L234.69,141.15L233.62,141.46L227.84,142.82L225.60,142.61L225.36,140.75L225.56,139.98L227.83,139.72L228.28,138.09L228.48,134.97L228.67,133.83L229.07,133.09L231.60,131.89z"/><path style="fill:#ffffff" d="M321.36,138.79L321.65,139.40L328.65,148.62L330.31,149.97L276.23,154.69L276.05,154.31L277.01,145.04L277.20,143.10L277.19,142.65L277.68,141.85L319.07,138.38z"/><path style="fill:#373eb7" d="M310.94,125.62L310.61,127.15L309.01,127.54L277.70,130.04L276.27,129.82L275.86,128.39L275.65,126.49L275.87,125.69L294.58,124.41L309.04,123.29z"/><path style="fill:#373eb7" d="M273.57,160.31L274.73,159.85L330.43,154.84L335.23,154.84L334.19,161.24L329.13,161.58L281.94,165.83L274.21,166.61L272.42,167.21L268.19,169.95L263.79,170.65L261.83,170.66L260.68,170.48L260.59,170.17L260.93,168.50L260.68,166.21L266.48,163.31L267.79,163.38L271.63,161.39L272.18,160.49L272.68,160.21z"/><path style="fill:#01ff02" d="M323.98,92.57L325.56,93.70L325.61,95.15L325.19,95.53L321.25,96.54L321.02,98.17L319.70,98.01L318.19,97.19L317.80,96.81L317.61,94.36L317.85,93.22L318.92,92.28L322.83,92.17z"/><path style="fill:#01ff02" d="M246.25,98.36L247.23,99.39L247.07,100.98L246.14,101.49L244.16,101.88L242.63,101.81L242.49,103.98L241.19,103.81L239.69,102.98L239.18,101.84L239.30,99.36L239.90,98.34L241.70,97.75L244.07,97.76z"/><path style="fill:#01ff02" d="M191.34,121.96L192.91,123.47L192.94,124.53L191.22,125.86L188.08,126.20L187.96,128.35L186.66,128.17L184.74,126.99L184.75,122.87L185.75,121.95L186.78,121.74L189.15,121.51z"/><path style="fill:#01ff02" d="M349.12,123.12L350.29,124.28L350.75,125.69L350.36,126.10L349.41,126.62L346.27,126.97L346.15,129.12L343.35,128.12L342.55,127.37L342.37,125.32L342.59,123.76L343.67,122.85L344.59,122.50L347.32,122.50z"/><path style="fill:#01ff02" d="M268.69,130.06L269.48,131.22L269.53,132.25L269.10,132.64L267.79,133.20L264.66,133.55L264.54,135.70L263.24,135.52L261.32,134.34L261.29,130.57L262.44,129.43L263.03,129.12L264.16,128.86L265.57,128.92z"/><path style="fill:#01ff02" d="M217.73,187.91L219.56,188.87L220.54,189.90L220.37,191.46L219.02,192.72L216.70,193.15L215.17,193.09L215.06,195.60L212.62,194.64L211.82,193.89L211.48,191.85L211.48,189.89L213.58,188.07L213.91,187.91L215.04,187.65L216.60,187.65z"/><path style="fill:#000020" d="M195.71,99.86L200.75,100.08L196.46,100.47z"/><path style="fill:#000020" d="M275.77,130.26L273.41,130.06L275.67,129.96z"/><path style="fill:#000020" d="M201.90,155.77L200.70,155.83L201.79,155.48z"/><path style="fill:#000020" d="M182.17,162.33L181.47,162.45L181.86,161.77L182.10,161.70z"/><path style="fill:#000020" d="M213.49,206.46L212.32,206.25L213.41,206.15z"/><path style="fill:#98d8ea" d="M239.49,128.40L239.42,131.01L238.61,131.23L235.16,130.24L235.16,126.94L236.00,126.10L237.49,126.00L238.93,126.10z"/><path style="fill:#98d8ea" d="M224.18,145.32L224.33,145.12L225.01,144.56L225.17,143.48L227.84,142.82L233.62,141.46L234.36,141.62L234.15,142.06L233.70,147.76L233.91,152.64L230.13,159.04L202.93,156.02L201.90,155.77L201.79,155.48L202.20,153.56L202.51,151.09L203.42,150.75L204.58,150.80L206.06,151.70L210.04,153.47L210.96,153.37L211.43,153.02L211.65,150.85L212.04,148.11L217.35,149.80L218.54,149.81L219.40,149.31L219.80,145.15L223.16,145.12z"/><path style="fill:#98d8ea" d="M197.14,153.66L199.20,155.20L194.27,155.21L193.80,168.57L192.99,168.75L188.65,166.78L187.18,165.87L184.09,163.67L182.17,162.33L182.10,161.70L186.99,154.08L187.47,153.91L189.19,156.28L189.27,156.51L191.32,156.49L191.39,156.27L192.49,154.61L192.69,153.55L192.99,152.38L196.08,152.31L196.40,152.48z"/><path style="fill:#e5e401" d="M213.22,114.26L215.30,112.40L215.74,111.79L215.90,112.54L213.74,115.12L213.35,115.03z"/><path style="fill:#e5e401" d="M218.49,115.18L217.46,114.99L218.48,114.96z"/><path style="fill:#e5e401" d="M224.69,119.99L223.23,119.73L223.25,119.31L227.69,117.40L228.44,117.28L228.21,123.68L227.77,124.06L227.14,124.29L226.94,125.31L223.18,124.84L221.70,124.53L221.34,123.13L224.97,122.09L226.95,121.40L227.28,122.90L227.32,121.17L227.12,121.06L226.59,120.25L226.51,120.04z"/><path style="fill:#e5e401" d="M253.82,119.25L256.30,118.84L255.64,125.63L255.25,125.77L254.12,125.99L253.61,126.46L253.43,128.44L252.89,129.98L251.80,130.08L251.45,129.99L251.66,125.18L251.91,123.50L253.64,123.02L253.98,124.06L253.96,122.32L253.80,122.18z"/><path style="fill:#e5e401" d="M271.03,120.27L270.81,122.23L270.66,124.16L270.44,125.31L269.59,125.83L269.19,125.62L269.81,120.13L270.48,118.77L270.99,118.83z"/><path style="fill:#e5e401" d="M236.31,125.63L236.00,126.10L235.16,126.94L232.43,128.71L232.69,123.24L233.09,121.70L235.44,120.20L236.60,119.25z"/><path style="fill:#e5e401" d="M222.11,128.14L228.73,126.98L228.91,126.86L229.05,128.81L228.88,131.49L228.59,131.59L222.24,129.72z"/><path style="fill:#e5e401" d="M240.96,129.87L241.45,123.49L243.41,123.13L244.69,121.31L245.34,119.64L248.21,119.64L247.52,126.39L245.17,126.51L244.56,126.59L244.49,127.22L244.30,127.92L242.81,129.89L241.73,130.30z"/><path style="fill:#e5e401" d="M161.17,139.90L159.96,141.78L159.68,144.29L157.82,144.75L154.67,144.98L153.86,144.67L154.17,139.08L154.79,137.77L160.38,137.16L161.50,136.97z"/><path style="fill:#e5e401" d="M211.86,147.32L211.65,150.85L211.43,153.02L210.96,153.37L210.04,153.47L210.48,146.67L210.90,146.25L211.83,146.29z"/><path style="fill:#e5e401" d="M195.99,151.50L195.74,151.95L193.12,152.12L192.99,152.38L192.71,152.51L192.69,153.55L192.49,154.61L191.39,156.27L189.49,156.18L189.63,149.40L191.71,149.16L192.89,147.25L193.11,145.15L195.98,145.15z"/><path style="fill:#3d45cc" d="M238.61,131.23L239.80,131.59L239.41,137.59L238.63,137.80L235.79,137.05L232.72,135.09L232.00,133.80L231.93,132.80L231.75,132.65L231.60,131.89L234.51,130.50L235.16,130.24z"/><path style="fill:#3d45cc" d="M339.04,153.70L340.34,153.93L340.49,154.19L341.51,154.25L348.85,154.79L350.01,155.20L349.92,155.39L347.47,156.41L342.04,156.78L340.74,163.17L334.56,161.58L334.19,161.24L335.23,154.84L330.43,154.84L274.73,159.85L273.57,160.31L272.68,160.21L275.15,158.34L275.64,157.68L275.86,156.27L276.23,154.69L330.31,149.97L331.36,150.19z"/><path style="fill:#3d45cc" d="M147.61,203.94L154.35,206.58L153.92,211.88L153.14,212.07L149.57,210.90L147.26,208.95L146.43,207.46L146.29,203.76L146.87,203.58z"/><path style="fill:#3d45cc" d="M209.50,228.32L212.03,230.51L211.95,231.99L210.76,232.17L207.56,231.04L204.89,229.06L203.73,227.04L203.70,226.01L203.51,225.88L203.51,223.95z"/><path style="fill:#89c2d2" d="M162.71,48.85L163.88,50.78L163.90,62.68L163.98,63.36L124.02,78.81L124.00,65.60L125.99,61.78L128.66,59.43L157.53,48.47L160.92,47.65z"/><path style="fill:#89c2d2" d="M173.61,71.52L171.47,71.74L171.38,71.97L171.15,72.16L171.04,71.32L173.63,70.95z"/><path style="fill:#89c2d2" d="M177.24,71.91L177.23,75.44L177.03,76.86L175.69,78.23L173.41,79.04L169.13,79.17L169.15,76.33L169.89,75.90L173.12,75.27L175.46,74.12L176.64,73.00L176.82,71.15z"/><path style="fill:#89c2d2" d="M153.26,81.54L153.25,85.11L153.05,86.53L152.50,87.14L149.45,88.72L144.76,88.84L144.76,85.59L147.90,85.24L150.93,84.02L152.65,82.26L153.01,80.91z"/><path style="fill:#89c2d2" d="M179.93,78.91L179.74,80.73L178.18,82.26L156.84,91.02L156.84,91.40L156.14,91.46L155.01,91.05L153.72,91.45L153.38,92.27L148.87,94.29L148.48,94.44L142.44,94.64L142.44,90.62L148.40,89.99L178.40,77.84L179.78,76.59z"/><path style="fill:#89c2d2" d="M164.50,93.69L165.83,93.73L165.42,95.76L164.79,96.02L163.60,96.22L163.00,96.02L162.97,95.67L165.04,94.98L165.08,94.53z"/><path style="fill:#89c2d2" d="M166.80,94.90L169.32,94.49L169.35,94.98L169.05,95.21L167.86,95.47L167.31,96.16L166.97,96.10z"/><path style="fill:#89c2d2" d="M129.43,104.98L130.21,105.00L132.77,113.30L132.67,114.42L129.33,115.80L125.93,115.80L121.57,112.77L121.44,112.24L122.07,112.27L123.67,113.18L123.90,101.81L124.79,101.80z"/><path style="fill:#89c2d2" d="M165.10,103.32L164.89,100.30L169.54,99.15L171.94,97.68L172.77,96.58L173.12,94.85L173.38,95.88L173.36,99.42L173.16,100.84L171.10,102.64L167.99,103.40L165.35,103.45z"/><path style="fill:#89c2d2" d="M179.55,103.41L185.77,102.61L185.96,102.47L186.12,103.28L186.09,104.42L185.89,104.69L184.46,107.56L182.52,108.22L181.26,108.04L180.64,107.20L182.35,106.87L182.45,106.47L180.49,104.56L179.69,104.14z"/><path style="fill:#89c2d2" d="M248.77,128.40L248.59,130.72L247.53,131.03L245.73,131.25L240.19,131.42L239.42,131.01L239.49,128.40L240.64,129.98L240.71,130.23L241.73,130.30L242.81,129.89L244.30,127.92L244.49,127.22L245.17,126.51L247.52,126.39z"/><path style="fill:#89c2d2" d="M151.16,159.36L148.91,159.67L147.49,160.25L145.52,162.21L144.79,162.35L144.91,158.45L148.24,155.98L151.11,155.98z"/><path style="fill:#008001" d="M333.29,104.92L346.05,120.39L346.96,121.73L343.43,121.74L339.33,122.74L335.86,125.07L333.01,125.63L313.65,127.16L311.99,126.99L311.23,125.76L310.94,125.62L309.04,123.29L308.56,122.31L306.28,119.09L305.97,118.34L305.78,117.46L306.73,109.90L323.73,108.61L326.20,108.06L330.01,106.08L330.92,103.51L331.17,102.54L331.33,102.63z"/><path style="fill:#008001" d="M414.45,166.48L415.08,169.41L415.30,170.54L415.47,171.36L415.69,172.48L415.86,173.67L416.08,174.80L416.25,175.61L416.46,176.76L416.90,179.07L416.47,179.46L415.89,179.55L408.58,183.87L405.72,197.56L403.64,197.39L402.11,196.99L400.97,195.03L397.85,194.28L396.75,192.33L396.06,192.13L394.88,191.93L393.60,191.57L392.44,189.65L389.23,188.99L387.84,186.93L387.16,186.72L384.96,186.28L383.97,184.12L383.93,182.68L383.76,182.54L383.59,181.00L383.54,179.98L383.36,179.85L383.20,178.31L383.16,176.88L382.99,176.75L382.81,175.60L382.77,174.17L382.61,174.02L382.06,172.56L354.17,155.51L354.15,153.42L355.75,142.04L355.35,141.64L342.41,140.91L340.34,153.93L339.04,153.70L331.36,150.19L330.31,149.97L328.65,148.62L321.65,139.40L321.36,138.79L321.41,138.17L332.61,137.21L337.65,137.21L340.58,137.84L344.57,138.79L344.98,138.96L348.88,138.94L351.04,138.32L353.61,137.03L354.72,134.95L354.97,133.83L355.14,132.66L355.51,131.52z"/><path style="fill:#ffffff" d="M203.32,100.68L207.17,102.24L208.49,103.22L206.92,103.57L205.14,104.16L204.86,104.77L204.59,107.83L203.56,108.05L201.51,109.53L199.94,109.56L199.14,109.40L198.91,105.18L196.46,100.47L200.75,100.08L201.12,100.10L201.38,100.33z"/><path style="fill:#ffffff" d="M222.70,172.12L215.68,184.36L214.19,185.57L209.49,187.44L206.89,189.21L196.31,185.79L195.71,185.35L207.92,179.30L209.35,177.25L214.38,174.54L215.32,173.17L215.52,171.44z"/><path style="fill:#01e502" d="M321.02,98.17L321.25,96.54L325.19,95.53L325.38,96.31L325.16,97.00L324.28,98.03L322.29,98.39z"/><path style="fill:#01e502" d="M244.16,101.88L246.14,101.49L247.07,100.98L247.26,101.74L247.02,102.78L245.75,103.81L242.49,103.98L242.63,101.81z"/><path style="fill:#01e502" d="M192.89,126.36L192.49,127.12L191.22,128.18L187.96,128.35L188.08,126.20L191.22,125.86L192.94,124.53z"/><path style="fill:#01e502" d="M350.52,126.87L350.29,127.92L349.02,128.95L346.15,129.12L346.27,126.97L349.41,126.62L350.36,126.10z"/><path style="fill:#01e502" d="M269.30,133.85L269.07,134.51L267.80,135.53L264.54,135.70L264.66,133.55L267.79,133.20L269.10,132.64z"/><path style="fill:#01e502" d="M245.35,143.63L247.40,142.97L248.25,142.34L247.80,144.92L246.63,145.69L243.42,146.07L243.18,145.83L243.51,143.60z"/><path style="fill:#01e502" d="M161.75,172.11L161.56,173.94L159.61,175.47L156.40,175.85L156.16,175.61L156.37,173.39L159.50,173.04L161.00,172.20L161.59,171.75z"/><path style="fill:#01e502" d="M216.70,193.15L219.02,192.72L220.37,191.46L220.57,192.63L220.34,193.68L219.23,194.86L217.50,195.46L215.06,195.60L215.17,193.09z"/><path style="fill:#00001c" d="M146.49,63.82L146.28,62.67L146.44,62.78z"/><path style="fill:#00001c" d="M173.55,71.78L171.38,71.97L171.47,71.74L173.61,71.52z"/><path style="fill:#00001c" d="M181.01,96.60L179.03,96.39L181.01,96.31z"/><path style="fill:#00001c" d="M174.91,107.08L175.49,107.13L175.31,109.08z"/><path style="fill:#00001c" d="M184.38,108.16L182.52,108.22L184.46,107.56z"/><path style="fill:#00001c" d="M207.99,111.82L207.91,112.11L207.21,111.84L207.22,109.84L207.43,108.68z"/><path style="fill:#00001c" d="M146.08,111.69L145.73,111.05L145.74,101.34L145.89,100.93L146.12,100.94z"/><path style="fill:#00001c" d="M132.96,114.47L132.67,114.42L132.77,113.30L132.93,113.45z"/><path style="fill:#00001c" d="M159.19,115.19L158.10,114.86L158.46,114.11z"/><path style="fill:#00001c" d="M157.43,114.79L155.47,114.62L156.26,114.38z"/><path style="fill:#00001c" d="M218.49,115.18L218.48,114.96L219.30,114.76L220.48,114.99z"/><path style="fill:#00001c" d="M277.18,116.71L276.96,114.86L277.18,114.98z"/><path style="fill:#00001c" d="M226.59,120.25L224.69,119.99L226.51,120.04z"/><path style="fill:#00001c" d="M227.28,122.90L226.95,121.40L227.12,121.06L227.32,121.17z"/><path style="fill:#00001c" d="M253.98,124.06L253.64,123.02L253.80,122.18L253.96,122.32z"/><path style="fill:#00001c" d="M228.98,124.09L227.77,124.06L228.21,123.68z"/><path style="fill:#00001c" d="M223.18,124.84L221.75,124.79L221.70,124.53z"/><path style="fill:#00001c" d="M244.49,127.22L244.56,126.59L245.17,126.51z"/><path style="fill:#00001c" d="M309.01,127.54L310.61,127.15L311.25,127.42z"/><path style="fill:#00001c" d="M230.44,128.01L230.20,126.87L230.38,127.00z"/><path style="fill:#00001c" d="M229.05,128.81L228.91,126.86L229.01,126.12L229.22,126.21z"/><path style="fill:#00001c" d="M276.27,129.82L277.70,130.04L275.77,130.26L275.67,129.96L275.86,128.39z"/><path style="fill:#00001c" d="M241.73,130.30L240.71,130.23L240.64,129.98L240.96,129.87z"/><path style="fill:#00001c" d="M248.63,131.10L247.53,131.03L248.59,130.72z"/><path style="fill:#00001c" d="M229.07,133.09L228.67,133.83L228.53,132.27L228.59,131.59L228.88,131.49z"/><path style="fill:#00001c" d="M202.53,149.97L202.19,148.52L202.38,145.79L202.54,145.93z"/><path style="fill:#00001c" d="M192.99,168.75L193.80,168.57L194.02,168.78z"/><path style="fill:#007301" d="M355.35,141.64L355.75,142.04L354.15,153.42L354.17,155.51L351.60,155.16L351.20,154.98L348.85,154.79L341.51,154.25L340.34,153.93L342.41,140.91z"/><path style="fill:#007301" d="M416.66,180.21L414.08,192.87L406.60,197.38L405.72,197.56L408.58,183.87L415.89,179.55L416.47,179.46z"/><path style="fill:#007301" d="M282.21,254.62L288.69,254.65L298.13,248.94L298.31,248.68L298.36,249.57L297.90,252.57L296.55,263.29L286.75,269.35L281.55,269.28L262.63,267.94L263.52,256.56L263.89,253.45z"/><path style="fill:#373eb7" d="M249.39,132.94L245.11,136.42L242.89,138.00L241.34,138.18L239.41,137.59L239.80,131.59L240.19,131.42L245.73,131.25L247.53,131.03L248.63,131.10z"/><path style="fill:#373eb7" d="M349.77,132.02L352.11,131.65L354.38,130.45L355.36,129.57L355.53,129.93L355.34,131.10L355.14,132.66L354.97,133.83L354.72,134.95L353.61,137.03L351.04,138.32L348.88,138.94L344.98,138.96L344.57,138.79L345.51,131.98z"/><path style="fill:#373eb7" d="M337.94,136.42L337.59,136.95L332.61,137.21L321.41,138.17L319.07,138.38L277.68,141.85L277.19,142.65L276.65,142.08L273.69,143.35L269.34,145.58L266.49,145.90L264.15,145.92L263.02,145.71L263.62,139.09L269.73,138.62L272.43,137.45L274.74,135.89L276.65,135.09L331.20,130.47L338.71,130.47z"/><path style="fill:#373eb7" d="M351.05,159.22L350.13,161.00L347.96,162.70L344.62,163.30L341.89,163.31L340.74,163.17L342.04,156.78L347.47,156.41L349.92,155.39L350.01,155.20L351.20,154.98L351.60,155.16z"/><path style="fill:#373eb7" d="M187.18,165.87L186.72,166.18L178.22,179.49L174.74,178.34L184.09,163.67z"/><path style="fill:#373eb7" d="M226.35,195.70L225.97,201.15L225.42,202.69L225.18,202.75L224.80,203.43L224.19,204.09L220.61,205.91L216.60,206.61L215.03,206.62L213.49,206.46L213.41,206.15L214.00,199.30L220.22,198.95L223.25,197.72L225.58,195.79L226.18,194.95z"/><path style="fill:#373eb7" d="M163.85,209.80L164.01,210.27L163.76,210.53L161.43,211.71L158.97,212.26L156.37,212.48L154.31,212.28L153.92,211.88L154.35,206.58z"/><path style="fill:#373eb7" d="M225.17,207.69L242.40,176.27L244.17,174.94L249.39,172.81L250.13,171.70L250.98,171.22L251.48,171.73L251.12,176.01L250.50,178.17L248.61,179.76L244.18,181.53L242.01,183.22L226.63,211.26L225.35,210.53z"/><path style="fill:#373eb7" d="M214.65,232.41L214.41,232.59L213.39,232.61L212.35,232.38L211.95,231.99L212.03,230.51L212.60,230.60z"/><path style="fill:#01ff02" d="M245.60,139.15L246.28,139.36L248.20,140.89L248.25,142.34L247.40,142.97L245.35,143.63L243.51,143.60L243.18,145.83L241.57,145.58L240.06,144.39L240.02,140.62L241.17,139.48L241.75,139.18L242.88,138.92z"/><path style="fill:#01ff02" d="M160.81,169.10L161.78,170.53L161.59,171.75L161.00,172.20L159.50,173.04L156.37,173.39L156.16,175.61L154.55,175.36L153.04,174.17L152.69,172.13L152.69,170.17L154.55,168.47L156.23,168.15L158.21,168.15L159.62,168.36z"/><path style="fill:#000020" d="M172.11,68.76L168.34,68.59L170.95,68.17z"/><path style="fill:#000020" d="M177.88,72.64L177.23,75.44L177.24,71.91z"/><path style="fill:#000020" d="M179.18,73.48L180.26,73.81L179.99,74.02L179.32,74.02z"/><path style="fill:#000020" d="M120.57,77.38L120.37,75.41L120.53,75.55z"/><path style="fill:#000020" d="M179.93,78.91L179.78,76.59L180.10,74.74z"/><path style="fill:#000020" d="M153.25,85.11L153.26,81.54L153.42,81.71z"/><path style="fill:#000020" d="M129.79,89.45L129.42,93.85L129.18,93.91L129.20,87.46L129.42,87.55z"/><path style="fill:#000020" d="M168.48,92.28L167.98,92.15L168.55,91.84z"/><path style="fill:#000020" d="M153.56,94.75L153.25,94.60L153.40,93.71z"/><path style="fill:#000020" d="M148.48,94.44L148.87,94.29L151.90,94.50z"/><path style="fill:#000020" d="M153.71,95.05L153.56,94.75L154.60,94.90z"/><path style="fill:#000020" d="M325.38,96.31L325.19,95.53L325.61,95.15z"/><path style="fill:#000020" d="M181.01,96.60L181.01,96.31L183.23,96.44z"/><path style="fill:#000020" d="M331.55,99.39L331.38,99.02L331.77,97.84z"/><path style="fill:#000020" d="M173.36,99.42L173.38,95.88L173.52,96.05z"/><path style="fill:#000020" d="M146.12,100.94L145.89,100.93L146.07,99.50z"/><path style="fill:#000020" d="M247.26,101.74L247.07,100.98L247.23,99.39L247.40,99.51z"/><path style="fill:#000020" d="M261.82,102.61L262.60,102.40L264.07,102.63z"/><path style="fill:#000020" d="M186.12,103.28L185.96,102.47L186.31,101.81z"/><path style="fill:#000020" d="M177.92,105.12L176.05,105.21L176.11,104.96z"/><path style="fill:#000020" d="M198.51,106.78L198.91,105.18L199.14,109.40L198.53,109.37z"/><path style="fill:#000020" d="M204.85,107.78L204.59,107.83L204.86,104.77z"/><path style="fill:#000020" d="M191.05,108.23L190.04,108.16L189.96,107.93z"/><path style="fill:#000020" d="M166.62,109.08L166.45,107.26L166.70,107.21z"/><path style="fill:#000020" d="M201.38,109.73L199.94,109.56L201.51,109.53z"/><path style="fill:#000020" d="M281.16,111.79L280.49,113.33L280.67,111.48z"/><path style="fill:#000020" d="M215.90,112.54L215.74,111.79L215.83,111.06L216.15,110.97z"/><path style="fill:#000020" d="M306.28,119.09L305.57,119.07L305.97,118.34z"/><path style="fill:#000020" d="M276.55,121.38L276.63,121.08L278.49,121.14z"/><path style="fill:#000020" d="M348.50,122.11L347.33,122.23L347.35,121.92z"/><path style="fill:#000020" d="M271.21,121.46L270.81,122.23L271.03,120.27z"/><path style="fill:#000020" d="M347.32,122.50L344.59,122.50L347.33,122.23z"/><path style="fill:#000020" d="M275.31,122.61L274.99,121.94L275.73,121.87z"/><path style="fill:#000020" d="M229.78,124.23L230.38,122.70L230.22,125.31z"/><path style="fill:#000020" d="M149.10,124.79L149.53,125.11L148.51,125.22L148.82,120.66z"/><path style="fill:#000020" d="M263.08,123.73L262.71,125.71L262.91,123.36z"/><path style="fill:#000020" d="M268.40,125.82L269.19,125.62L269.59,125.83z"/><path style="fill:#000020" d="M237.49,126.00L236.00,126.10L236.31,125.63L237.39,125.72z"/><path style="fill:#000020" d="M275.87,125.69L275.65,126.49L275.46,124.52z"/><path style="fill:#000020" d="M350.52,126.87L350.36,126.10L350.75,125.69z"/><path style="fill:#000020" d="M355.53,129.93L355.36,129.57L355.76,128.80z"/><path style="fill:#000020" d="M252.78,130.22L251.80,130.08L252.89,129.98z"/><path style="fill:#000020" d="M240.19,131.42L239.80,131.59L238.61,131.23L239.42,131.01z"/><path style="fill:#000020" d="M355.51,131.52L355.14,132.66L355.34,131.10z"/><path style="fill:#000020" d="M269.30,133.85L269.10,132.64L269.53,132.25z"/><path style="fill:#000020" d="M232.00,133.80L231.75,132.65L231.93,132.80z"/><path style="fill:#000020" d="M147.83,133.46L148.77,133.33L149.16,131.21L149.00,135.37L148.75,133.97z"/><path style="fill:#000020" d="M141.09,135.09L140.44,135.29L140.40,134.68z"/><path style="fill:#000020" d="M337.65,137.21L332.61,137.21L337.59,136.95z"/><path style="fill:#000020" d="M241.34,138.18L239.79,138.37L238.63,137.80L239.41,137.59z"/><path style="fill:#000020" d="M319.07,138.38L321.41,138.17L321.36,138.79z"/><path style="fill:#000020" d="M150.85,139.54L149.43,139.51L149.38,139.24L149.68,139.14z"/><path style="fill:#000020" d="M225.56,139.98L225.61,139.75L227.83,139.72z"/><path style="fill:#000020" d="M234.36,141.62L233.62,141.46L234.69,141.15z"/><path style="fill:#000020" d="M152.59,141.28L153.04,141.15L153.14,144.22L152.54,141.63z"/><path style="fill:#000020" d="M219.78,144.31L219.65,142.30L219.96,142.04z"/><path style="fill:#000020" d="M277.01,145.04L276.85,144.68L277.20,143.10z"/><path style="fill:#000020" d="M224.18,145.32L223.16,145.12L224.33,145.12z"/><path style="fill:#000020" d="M159.66,148.92L159.49,147.10L159.65,146.95z"/><path style="fill:#000020" d="M217.35,149.80L218.14,149.61L218.54,149.81z"/><path style="fill:#000020" d="M212.04,148.11L211.65,150.85L211.86,147.32z"/><path style="fill:#000020" d="M204.58,150.80L203.42,150.75L204.20,150.36z"/><path style="fill:#000020" d="M140.12,151.22L140.70,151.42L140.71,151.84L139.25,151.90L139.22,151.36z"/><path style="fill:#000020" d="M196.08,152.31L192.99,152.38L193.12,152.12L195.74,151.95z"/><path style="fill:#000020" d="M192.69,153.55L192.71,152.51L192.99,152.38z"/><path style="fill:#000020" d="M341.51,154.25L340.49,154.19L340.34,153.93z"/><path style="fill:#000020" d="M351.20,154.98L350.01,155.20L348.85,154.79z"/><path style="fill:#000020" d="M191.32,156.49L189.27,156.51L189.19,156.28L189.49,156.18L191.39,156.27z"/><path style="fill:#000020" d="M139.89,159.00L139.32,165.16L139.26,158.64z"/><path style="fill:#000020" d="M151.11,159.60L148.91,159.67L151.16,159.36z"/><path style="fill:#000020" d="M152.54,159.82L153.13,159.82L152.81,160.50z"/><path style="fill:#000020" d="M334.56,161.58L329.13,161.58L334.19,161.24z"/><path style="fill:#000020" d="M415.30,170.54L415.08,169.41L415.25,169.55z"/><path style="fill:#000020" d="M250.98,171.22L251.77,171.03L251.48,171.73z"/><path style="fill:#000020" d="M161.75,172.11L161.59,171.75L161.78,170.53L161.94,170.69z"/><path style="fill:#000020" d="M415.69,172.48L415.47,171.36L415.65,171.48z"/><path style="fill:#000020" d="M238.26,173.96L236.69,173.75L238.12,173.79z"/><path style="fill:#000020" d="M416.08,174.80L415.86,173.67L416.03,173.80z"/><path style="fill:#000020" d="M382.81,175.60L382.61,174.02L382.77,174.17z"/><path style="fill:#000020" d="M416.46,176.76L416.25,175.61L416.43,175.73z"/><path style="fill:#000020" d="M172.49,177.84L171.71,177.82L172.05,177.15z"/><path style="fill:#000020" d="M383.20,178.31L382.99,176.75L383.16,176.88z"/><path style="fill:#000020" d="M416.66,180.21L416.47,179.46L416.90,179.07z"/><path style="fill:#000020" d="M383.59,181.00L383.36,179.85L383.54,179.98z"/><path style="fill:#000020" d="M383.97,184.12L383.76,182.54L383.93,182.68z"/><path style="fill:#000020" d="M155.47,187.51L154.47,187.45L154.32,187.20z"/><path style="fill:#000020" d="M142.03,187.59L141.89,185.64L141.88,184.88L142.24,181.76z"/><path style="fill:#000020" d="M220.57,192.63L220.37,191.46L220.54,189.90L220.72,190.02z"/><path style="fill:#000020" d="M226.35,195.70L226.18,194.95L226.51,192.32z"/><path style="fill:#000020" d="M224.80,203.43L225.18,202.75L225.42,202.69L225.18,206.16z"/><path style="fill:#000020" d="M154.31,212.28L153.14,212.07L153.92,211.88z"/><path style="fill:#000020" d="M203.73,227.04L203.51,225.88L203.70,226.01z"/><path style="fill:#000020" d="M212.35,232.38L210.76,232.17L211.95,231.99z"/><path style="fill:#000020" d="M295.09,245.91L294.08,245.85L294.01,245.62z"/><path style="fill:#98d8ea" d="M148.81,58.98L148.81,59.38L147.10,60.07L145.13,61.59L143.75,63.69L142.62,67.15L140.27,65.88L140.24,62.11L141.64,59.64L143.99,57.74L146.86,57.74z"/><path style="fill:#98d8ea" d="M149.99,62.74L150.00,63.31L148.38,64.47L148.26,67.08L147.50,67.20L147.21,65.85L146.34,65.83L145.89,66.26L144.88,66.28L144.88,65.65L146.13,65.15L146.84,65.15L146.49,63.82L146.44,62.78L146.28,62.67L146.89,61.70L147.25,61.63L147.62,63.22L148.62,63.19L149.61,62.37z"/><path style="fill:#e5e401" d="M258.56,100.04L259.25,99.13L260.42,98.75L262.89,98.74L262.60,102.40L261.82,102.61L260.14,102.27L258.60,101.05z"/><path style="fill:#e5e401" d="M219.77,103.00L220.97,101.85L222.12,101.46L224.21,101.45L224.23,105.48L222.38,105.29L220.36,104.53z"/><path style="fill:#e5e401" d="M212.22,106.08L212.20,107.78L208.34,109.71L207.99,111.82L207.43,108.68L207.55,107.68L206.66,107.28L207.05,105.71z"/><path style="fill:#e5e401" d="M213.99,110.35L216.12,110.33L216.15,110.97L215.83,111.06z"/><path style="fill:#e5e401" d="M272.54,110.82L272.96,110.78L272.96,111.61L272.54,111.57z"/><path style="fill:#e5e401" d="M207.21,111.84L206.64,111.66L206.76,110.44L207.22,109.84z"/><path style="fill:#e5e401" d="M208.98,112.06L208.96,110.73L213.40,110.75z"/><path style="fill:#e5e401" d="M221.64,114.46L220.48,114.99L219.30,114.76L220.61,114.18z"/><path style="fill:#e5e401" d="M267.75,114.97L268.57,114.15L269.05,114.18L269.08,115.91z"/><path style="fill:#e5e401" d="M261.67,117.47L263.31,116.95L263.27,120.94L262.91,120.86L262.10,118.87L261.71,118.44z"/><path style="fill:#e5e401" d="M218.24,118.51L221.33,116.91L222.18,116.11L222.61,116.10L221.48,119.76L220.19,120.06L219.20,120.04L218.37,119.21z"/><path style="fill:#e5e401" d="M239.43,119.50L238.93,126.10L237.49,126.00L237.39,125.72L237.72,120.53L237.99,119.24L239.29,119.23z"/><path style="fill:#e5e401" d="M154.98,127.74L154.96,129.44L151.85,130.23L151.74,127.35z"/><path style="fill:#e5e401" d="M156.94,132.42L157.28,134.34L153.42,136.79L153.09,139.62L150.85,139.54L149.68,139.14L149.82,132.36z"/><path style="fill:#e5e401" d="M216.14,138.84L215.91,138.26L217.26,137.42L217.26,139.50z"/><path style="fill:#e5e401" d="M209.73,141.71L211.89,140.95L211.44,144.55L210.72,143.17L209.86,142.42z"/><path style="fill:#e5e401" d="M161.16,148.43L161.15,144.91L161.41,142.85L162.16,142.43L165.78,141.64z"/><path style="fill:#3d45cc" d="M308.56,122.31L309.04,123.29L294.58,124.41L275.87,125.69L275.46,124.52L275.31,122.61L275.73,121.87L276.55,121.38L278.49,121.14L305.57,119.07L306.28,119.09z"/><path style="fill:#3d45cc" d="M184.09,163.67L174.74,178.34L172.49,177.84L172.05,177.15L181.47,162.45L182.17,162.33z"/><path style="fill:#3d45cc" d="M271.63,161.39L267.79,163.38L266.48,163.31L272.18,160.49z"/><path style="fill:#3d45cc" d="M255.30,168.94L260.68,166.21L260.93,168.50L260.59,170.17L259.11,170.27z"/><path style="fill:#89c2d2" d="M169.18,70.08L170.47,70.14L170.50,70.62L169.42,72.02L167.41,72.00L167.17,71.66L169.20,71.30z"/><path style="fill:#89c2d2" d="M144.40,79.79L145.37,79.46L145.31,80.32L144.49,80.21z"/><path style="fill:#89c2d2" d="M149.20,80.52L148.71,80.98L146.68,81.48L146.69,80.62L148.83,80.15z"/><path style="fill:#89c2d2" d="M145.72,81.72L144.39,82.16L143.33,82.13L143.23,81.74L145.33,81.01z"/><path style="fill:#89c2d2" d="M188.98,91.12L189.79,89.62L193.49,87.52L195.45,87.16L201.79,87.15L201.12,100.10L200.75,100.08L195.71,99.86L189.40,94.48L188.98,93.37z"/><path style="fill:#89c2d2" d="M181.01,96.31L179.03,96.39L178.74,95.67L180.90,93.72z"/><path style="fill:#89c2d2" d="M181.11,99.55L185.03,97.91L185.51,97.95L185.57,101.57L181.21,100.29z"/><path style="fill:#89c2d2" d="M151.90,102.33L151.38,102.65L149.82,103.17L149.79,101.45L151.92,101.48z"/><path style="fill:#89c2d2" d="M155.31,106.46L154.95,108.15L154.69,114.39L153.24,114.57L152.41,116.10L149.55,114.61L149.41,105.31L154.94,104.91z"/><path style="fill:#89c2d2" d="M143.73,104.66L145.52,101.44L145.74,101.34L145.73,111.05L144.54,109.95L143.75,106.88z"/><path style="fill:#89c2d2" d="M175.49,107.13L174.91,107.08L174.91,106.48L175.52,106.35z"/><path style="fill:#89c2d2" d="M163.89,111.00L166.05,110.33L166.63,109.86L166.56,112.06L164.61,111.55z"/><path style="fill:#89c2d2" d="M156.26,114.38L156.50,108.93L160.80,107.27L160.80,110.23L159.46,110.33L158.71,110.75L158.46,114.11L158.10,114.86L157.43,114.79z"/><path style="fill:#89c2d2" d="M140.12,151.22L139.22,151.36L136.26,151.73L133.57,154.14L132.95,153.98L133.18,150.20L134.70,149.40L136.27,147.87L137.42,147.48L139.90,147.47z"/><path style="fill:#89c2d2" d="M151.15,151.52L144.76,154.49L143.97,154.45L151.13,150.20z"/><path style="fill:#89c2d2" d="M141.88,184.88L141.89,185.64L140.65,184.99L140.40,184.17L141.04,184.20z"/><g id="Actor_304.0"><g style="stroke:#000000;stroke-width:0.176"><path d="M318.12,126.88L307.74,113.51L306.69,111.33L306.84,109.78"/><path d="M326.45,137.63L330.24,142.50L341.37,147.37L354.90,148.46L353.87,155.09"/><path d="M329.32,149.12L330.24,142.50"/><path d="M340.40,154.01L341.37,147.37"/><path d="M354.90,148.46L383.70,165.95L382.52,172.64"/><path d="M393.71,191.54L394.98,184.78L393.94,182.78L390.65,182.11L389.63,180.13L386.34,179.46L385.34,177.49L383.70,165.95"/><path d="M385.12,186.21L386.34,179.46"/><path d="M389.40,188.87L390.65,182.11"/><path d="M388.39,186.88L389.63,180.13"/><path d="M392.68,189.54L393.94,182.78"/><path d="M394.98,184.78L398.29,185.45L399.33,187.46L402.66,188.14L401.35,194.91"/><path d="M397.00,192.22L398.29,185.45"/><path d="M398.04,194.23L399.33,187.46"/><path d="M402.40,196.94L403.72,190.16L402.66,188.14"/><path d="M403.72,190.16L407.06,190.84L405.72,197.62"/><path d="M407.06,190.84L415.41,185.86"/></g><g style="stroke:#000000;stroke-width:0.529"><path d="M306.83,109.78L306.13,115.66L305.92,117.81L306.96,120.00L312.59,127.33"/><path d="M320.86,138.10L329.32,149.12L340.40,154.01L353.87,155.09L382.52,172.64L384.12,184.23L385.12,186.21L388.39,186.88L389.40,188.87L392.68,189.54L393.71,191.54L397.00,192.22L398.04,194.23L401.35,194.91L402.40,196.94L405.72,197.62L414.05,192.61L415.41,185.86"/></g></g><g id="Actor_200.0"><g style="stroke:#000000;stroke-width:0.176"><path d="M161.75,170.78L161.53,171.64L160.85,172.40L159.78,172.99L158.44,173.34L156.96,173.41L156.22,173.34L155.51,173.19L154.26,172.72L153.33,172.03L152.83,171.20L152.82,170.33"/></g><g style="stroke:#000000;stroke-width:0.529"><path d="M161.69,173.19L161.75,170.78L161.48,169.93L160.75,169.17L159.65,168.58L158.29,168.23L156.82,168.16L155.39,168.37L154.17,168.84L153.28,169.52L152.82,170.33L152.77,172.74"/></g></g><g id="Actor_.0"><g style="stroke:#000000;stroke-width:0.176"><path d="M147.81,131.01L139.90,125.45L138.86,124.50L138.27,123.44L129.62,96.36"/><path d="M146.12,107.50L145.19,108.28L144.51,109.78"/><path d="M226.72,165.64L194.52,161.99L192.58,161.63L190.82,161.02L189.34,160.19L184.91,157.08"/><path d="M190.58,95.39L190.84,95.16L193.71,93.96L197.24,93.38L201.01,93.48L204.58,94.26L207.53,95.62L211.60,98.22"/><path d="M230.32,125.92L229.07,126.49"/><path d="M235.02,130.16L235.27,126.70"/><path d="M238.78,167.01L240.86,167.24L243.26,167.31L245.54,166.98L247.50,166.28L274.05,153.09L275.45,152.14L276.28,150.96L276.48,149.67"/><path d="M248.55,130.70L248.77,128.03"/></g><g style="stroke:#000000;stroke-width:0.529"><path d="M129.62,96.36L129.60,102.91L138.22,130.14L138.81,131.20L139.84,132.15L149.38,138.91"/><path d="M153.20,141.62L149.98,139.34"/><path d="M159.80,146.29L157.48,144.65"/><path d="M223.00,172.10L194.21,168.83L192.27,168.47L190.52,167.85L189.04,167.02L181.80,161.89"/><path d="M208.94,103.23L207.19,102.10L204.25,100.74L200.69,99.96L196.94,99.86L195.87,100.03"/><path d="M228.70,133.08L235.02,130.16L238.31,131.06L241.84,131.47L245.34,131.34L248.55,130.70L249.42,132.62"/><path d="M276.48,149.67L275.79,156.37L275.59,157.67L274.76,158.85L273.37,159.82L246.93,173.10L244.98,173.80L242.71,174.13L240.33,174.06L235.17,173.48"/></g></g><g id="Actor_.1"><g style="stroke:#000000;stroke-width:0.176"><path d="M129.63,89.74L138.32,116.69L138.91,117.73L139.96,118.68L148.88,124.90"/><path d="M146.21,100.84L145.27,101.61L143.52,105.44L144.23,109.44L144.51,109.78"/><path d="M185.48,101.23L186.37,101.92L187.85,104.56"/><path d="M214.55,93.30L207.88,89.08L204.91,87.73L201.33,86.95L197.54,86.84L194.00,87.42L191.12,88.61L189.25,90.28L188.63,92.23L189.33,94.24L190.58,95.39"/><path d="M192.38,154.55L192.89,154.73L194.85,155.09L200.05,155.68"/><path d="M230.47,159.12L200.33,155.71"/><path d="M277.17,142.90L276.97,144.19L276.13,145.36L274.73,146.31L248.07,159.41L246.10,160.10L243.82,160.43L242.46,160.39"/></g><g style="stroke:#000000;stroke-width:0.529"><path d="M147.81,131.01L139.90,125.45L138.86,124.50L138.27,123.44L129.62,96.36L129.63,89.74L131.69,88.93"/><path d="M152.62,116.23L147.34,113.17L144.51,109.78L145.19,108.28L146.12,107.50"/><path d="M179.13,73.63L219.09,82.89L220.77,83.40L222.19,84.10L226.85,87.00"/><path d="M184.91,157.08L189.34,160.19L190.82,161.02L192.58,161.63L194.52,161.99L226.72,165.64"/><path d="M211.60,98.22L207.53,95.62L204.58,94.26L201.01,93.48L197.24,93.38L193.71,93.96L190.84,95.16L190.58,95.39L191.29,96.04L196.43,100.53L199.03,105.59L198.86,109.35"/><path d="M225.17,143.09L228.16,142.87L234.85,141.24"/><path d="M229.07,126.49L230.32,125.92"/><path d="M238.78,167.01L240.86,167.24L243.26,167.31L245.54,166.98L247.50,166.28L274.05,153.09L275.45,152.14L276.28,150.96L276.48,149.67L277.17,142.90L277.07,141.85"/><path d="M242.36,138.18L244.14,137.34L249.24,132.96L250.89,129.87"/><path d="M275.96,130.24L275.16,121.89"/></g></g><g id="Actor_.2"><g style="stroke:#000000;stroke-width:0.176"><path d="M122.37,96.84L123.57,96.82L124.90,97.44L129.61,100.68"/><path d="M124.93,114.92L124.07,113.51L123.77,111.66L123.75,102.55L123.80,102.10L123.97,101.77L124.22,101.60L124.54,101.60L124.90,101.77L130.46,105.60"/></g><g style="stroke:#000000;stroke-width:0.529"><path d="M133.15,114.12L129.79,115.52L127.94,115.97L126.26,115.77L124.93,114.92L121.83,112.75L120.97,111.33L120.66,109.49L120.63,100.39L120.83,98.72L121.43,97.49L122.37,96.84L129.62,93.95"/></g></g><g id="Actor_100.0"><g style="stroke:#000000;stroke-width:0.176"><path d="M133.07,154.03L133.09,150.29L131.11,148.84L130.83,148.56L130.72,148.24"/><path d="M133.09,150.29L134.21,149.79L134.64,149.53L135.42,148.44L136.38,147.84L137.64,147.47L139.06,147.36L140.46,147.53L141.67,147.97L142.56,148.61L143.02,149.38L142.98,150.20L142.46,150.96L141.51,151.56L140.25,151.95L139.59,152.00"/><path d="M136.51,152.78L141.10,156.13L151.23,150.10L150.08,149.27L148.92,149.95L140.06,143.58L139.66,143.76"/><path d="M139.84,183.37L140.58,184.39"/><path d="M153.01,159.98L151.89,159.58L150.48,159.41L149.06,159.52L147.79,159.90L146.84,160.52L146.07,161.63L145.65,161.91L144.53,162.42L139.53,158.76"/><path d="M141.38,151.60L140.42,151.26L139.60,151.16"/><path d="M159.67,150.78L140.12,136.85L139.84,136.57L139.73,136.25"/><path d="M156.50,155.40L151.21,151.59L141.10,156.13L144.57,158.66L144.53,162.42"/><path d="M139.95,155.29L148.92,149.95"/><path d="M144.57,158.66L145.70,158.15L146.12,157.88L146.89,156.77L147.85,156.16L149.12,155.77L150.54,155.66L151.96,155.84L153.19,156.28L154.10,156.93L154.57,157.73L154.56,158.21"/><path d="M149.27,165.89L148.01,164.97L148.06,161.21L149.19,160.70L149.75,160.52L151.82,160.35L153.09,159.96L153.58,159.63"/><path d="M148.06,161.21L150.11,162.70L150.54,162.93L151.08,163.08L151.20,163.08"/><path d="M149.41,140.84L149.52,141.14L152.18,143.78L153.79,144.62"/><path d="M151.21,151.59L151.23,150.10"/><path d="M154.26,144.87L156.15,145.85L159.79,146.81"/></g><g style="stroke:#000000;stroke-width:0.529"><path d="M141.11,135.12L140.42,135.42L140.03,135.65L139.79,135.94L139.73,136.25L139.66,143.76L131.42,147.38L131.03,147.62L130.79,147.91L130.72,148.24L130.71,151.97L130.82,152.29L131.09,152.58L133.07,154.03L134.19,153.53L134.62,153.26L135.40,152.17L136.35,151.57L137.61,151.20L139.03,151.09L139.60,151.16L139.59,152.00L138.19,152.12L137.63,152.28L136.51,152.78L136.49,156.53L139.53,158.76L139.33,182.23L139.38,182.55L139.50,182.93L139.64,183.17L140.82,184.72L141.00,184.89L142.20,185.79"/><path d="M215.40,171.23L215.30,172.79L215.24,173.06L215.12,173.34L214.89,173.67L213.76,174.88L213.60,175.02L213.38,175.15L209.03,177.29L207.81,179.31L195.17,185.52"/></g></g><g id="Actor_200.1"><g style="stroke:#000000;stroke-width:0.176"><path d="M325.57,94.61L325.29,95.24L324.64,95.74L324.62,95.75L323.63,96.09L322.42,96.21L321.14,96.11L319.92,95.80L318.88,95.31L318.48,95.01L318.16,94.69L317.82,94.01L317.90,93.35"/></g><g style="stroke:#000000;stroke-width:0.529"><path d="M325.28,96.83L325.57,94.61L325.43,93.94L324.88,93.28L323.99,92.72L322.85,92.32L321.59,92.11L320.34,92.12L319.23,92.35L318.38,92.78L317.90,93.35L317.62,95.56"/></g></g><g id="Actor_301.0"><g style="stroke:#000000;stroke-width:0.176"><path d="M184.16,163.56L174.53,178.61"/></g><g style="stroke:#000000;stroke-width:0.529"><path d="M164.61,209.85L162.70,211.10L159.62,212.06L156.17,212.33L152.75,211.88L149.78,210.74L147.59,209.07L146.42,207.05L146.42,204.92L146.45,203.13"/><path d="M186.93,165.53L186.85,165.62L177.90,179.73"/></g></g><g id="Actor_301.1"><g style="stroke:#000000;stroke-width:0.176"><path d="M240.64,131.33L241.56,131.46L241.67,131.45"/><path d="M309.48,123.28L307.98,123.29L275.54,125.87"/></g><g style="stroke:#000000;stroke-width:0.529"><path d="M243.02,137.87L241.06,137.98L238.00,137.56L235.27,136.61L233.19,135.23L231.99,133.58L231.81,131.86L231.83,131.63"/><path d="M276.29,121.41L305.79,119.09L306.48,118.98"/></g></g><g id="Actor_301.2"><g style="stroke:#000000;stroke-width:0.176"><path d="M350.64,154.84L349.86,155.52L347.45,156.45L344.50,156.79L341.33,156.52L338.32,155.65L336.30,155.03L334.16,154.71L332.05,154.72L276.17,159.66L274.16,160.02L272.44,160.68L271.14,161.62L269.12,162.95L266.37,163.76L265.39,163.83"/></g><g style="stroke:#000000;stroke-width:0.529"><path d="M255.78,168.65L256.51,169.15L259.38,170.18L262.58,170.62L265.73,170.42L268.47,169.60L270.48,168.26L271.78,167.32L273.49,166.65L275.49,166.29L331.13,161.28L333.23,161.26L335.36,161.58L337.37,162.21L340.36,163.08L343.52,163.35L346.46,163.00L348.86,162.07L350.43,160.66L351.00,158.95L351.63,154.92"/><path d="M331.07,149.90L329.61,150.15L275.95,154.83"/></g></g><g id="Actor_301.3"><g style="stroke:#000000;stroke-width:0.176"><path d="M255.49,132.47L255.75,134.31L257.08,136.07L259.35,137.55L262.28,138.57L265.55,139.01L268.77,138.82L271.56,138.03L273.61,136.73L274.93,135.82L276.68,135.17L278.72,134.83L335.50,130.17L337.65,130.16L339.83,130.48L341.88,131.10L344.94,131.96L348.16,132.24L351.17,131.91L353.61,131.01L355.20,129.65L355.77,127.98"/><path d="M261.04,133.51L261.04,133.68L261.17,133.89"/><path d="M262.66,135.22L262.34,135.09L262.15,134.94"/><path d="M261.39,134.26L261.49,134.43L261.73,134.62"/><path d="M263.86,135.65L263.49,135.57L263.23,135.46"/><path d="M265.20,135.85L264.82,135.84L264.52,135.78"/><path d="M266.53,135.79L266.18,135.86L265.88,135.86"/><path d="M267.71,135.50L267.43,135.63L267.15,135.68"/><path d="M268.61,134.99L268.43,135.17L268.21,135.27"/><path d="M269.13,134.33L269.07,134.54L268.92,134.68"/><path d="M269.27,133.78L269.27,133.83"/><path d="M343.14,127.97L342.89,127.79L342.78,127.63"/><path d="M342.51,127.26L342.37,127.06L342.35,126.90"/><path d="M342.30,126.53L342.27,126.32L342.35,126.17"/><path d="M344.70,128.79L344.96,128.90L345.33,128.97"/><path d="M343.59,128.28L343.79,128.42L344.12,128.56"/><path d="M346.65,129.16L346.28,129.16L345.98,129.10"/><path d="M347.30,129.17L347.60,129.18L347.93,129.12"/><path d="M349.04,128.83L348.78,128.95L348.52,129.00"/><path d="M349.85,128.34L349.69,128.51L349.49,128.61"/><path d="M350.12,128.04L350.24,127.90L350.27,127.69"/></g><g style="stroke:#000000;stroke-width:0.529"><path d="M255.15,141.19L256.48,142.95L258.73,144.43L261.65,145.46L264.91,145.90L268.11,145.71L270.89,144.91L272.93,143.60L274.24,142.68L275.98,142.03L278.02,141.69L334.55,136.95L336.69,136.94L338.86,137.26L340.90,137.88L343.94,138.74L347.15,139.02L350.14,138.69L352.57,137.78L354.16,136.41L354.74,134.73L355.77,127.98L355.27,126.21L353.74,124.52L351.38,123.11L348.45,122.14L345.28,121.72L342.23,121.89L339.63,122.63L337.79,123.86L336.59,124.73L334.96,125.35L333.00,125.68L276.55,130.24L274.36,130.25L272.18,129.93L270.15,129.30L267.14,128.44L263.90,128.16L260.79,128.49L258.17,129.39L256.35,130.75L256.33,130.77L255.49,132.47L254.90,139.34L255.15,141.19"/></g></g><g id="Actor_301.4"><g style="stroke:#000000;stroke-width:0.176"><path d="M251.02,171.04L250.76,171.61L248.92,173.11L246.27,174.12L244.42,174.77L242.96,175.71L242.01,176.86L225.04,208.04"/></g><g style="stroke:#000000;stroke-width:0.529"><path d="M203.65,223.79L203.59,224.73L203.76,226.96L205.09,229.06L207.43,230.81L210.53,231.99L214.02,232.46L215.10,232.37"/><path d="M226.42,211.47L241.47,183.60L242.42,182.44L243.87,181.50L245.71,180.84L248.35,179.83L250.19,178.32L251.01,176.49L251.50,170.80"/></g></g><g id="Actor_301.5"><g style="stroke:#000000;stroke-width:0.176"><path d="M226.37,194.51L225.10,196.50L222.78,198.09L219.66,199.07L216.11,199.35L212.53,198.87L209.36,197.70L206.95,195.98L205.59,193.91L205.42,191.73"/><path d="M212.22,194.26L212.37,194.43L212.71,194.62"/><path d="M211.48,192.97L211.41,192.69L211.46,192.51"/><path d="M211.69,193.64L211.66,193.60L211.64,193.55"/><path d="M213.89,195.21L213.48,195.08L213.25,194.95"/><path d="M215.31,195.53L214.86,195.50L214.56,195.41"/><path d="M216.05,195.60L216.36,195.62L216.79,195.57"/><path d="M217.52,195.48L217.81,195.45L218.18,195.31"/><path d="M219.33,194.79L219.06,194.99L218.81,195.08"/><path d="M219.79,194.44L219.97,194.30L220.27,193.90L220.29,193.84"/><path d="M220.44,193.19L220.45,193.46L220.31,193.78"/><path d="M253.75,144.69L252.92,146.48L251.05,147.95L248.36,148.93L246.47,149.56L245.00,150.47L244.03,151.61L224.72,185.97L224.28,187.38L224.48,188.84L225.32,190.24L225.57,190.72"/><path d="M234.24,142.15L234.19,144.04L235.26,145.89L236.07,147.14L236.28,148.45L235.88,149.71L234.42,152.26"/><path d="M240.12,144.44L239.97,144.28L239.90,144.05"/><path d="M240.89,145.13L240.67,145.00L240.47,144.80"/><path d="M239.77,143.27L239.71,143.49L239.78,143.70"/><path d="M241.99,145.66L241.72,145.58L241.41,145.41"/><path d="M242.64,145.84L243.01,145.95L243.31,145.97"/><path d="M244.69,146.04L244.40,146.07L244.00,146.03"/><path d="M245.36,145.96L245.74,145.92L245.99,145.84"/><path d="M248.11,144.04L248.12,144.21L247.97,144.59L247.71,144.94L247.66,144.97"/><path d="M247.06,145.41L246.89,145.53L246.56,145.65"/></g><g style="stroke:#000000;stroke-width:0.529"><path d="M205.19,201.12L206.55,203.20L208.94,204.93L212.10,206.10L215.65,206.57L219.18,206.30L222.29,205.30L224.60,203.71L225.86,201.71L226.37,194.51L226.44,192.34L225.57,190.72L243.47,158.58L244.43,157.44L245.91,156.52L247.78,155.89L250.46,154.90L252.32,153.42L253.15,151.62L253.75,144.69L253.46,142.80L252.09,141.01L249.80,139.53L246.85,138.53L243.58,138.10L240.34,138.31L237.50,139.12L235.39,140.45L234.24,142.15L233.73,149.09L233.68,150.98L234.42,152.26L216.19,183.92L215.12,185.17L213.51,186.19L211.48,186.90L208.55,188.02L206.44,189.69L205.42,191.73L205.02,198.93L205.19,201.12"/></g></g><g id="Actor_.3"><g style="stroke:#000000;stroke-width:0.176"><path d="M146.23,99.47L146.28,100.36L146.14,111.73"/><path d="M146.28,100.36L149.03,101.02L151.97,101.38L151.95,102.37L150.20,103.22L148.47,104.50L149.30,105.29L149.17,114.24"/><path d="M148.34,113.75L148.47,104.50"/><path d="M147.83,99.07L148.89,98.80L151.76,98.43L152.07,97.65L149.75,96.62L147.88,95.38"/><path d="M149.30,105.29L152.30,105.21L155.19,104.80L155.14,107.45L154.89,108.51L156.31,109.02L156.20,114.71"/><path d="M151.97,101.38L152.39,102.16L151.95,102.37"/><path d="M154.89,108.51L154.77,114.61"/><path d="M153.57,94.94L154.46,95.06L155.41,94.46L154.22,93.02L153.63,91.49"/><path d="M156.31,109.02L158.86,108.19L161.00,107.10L160.93,110.39"/><path d="M155.14,107.45L155.26,106.91L156.24,105.40L155.19,104.80"/><path d="M161.00,107.10L162.46,107.38L162.93,108.99L164.01,110.53L163.99,111.19"/><path d="M164.01,110.53L165.69,110.63L165.66,111.85"/><path d="M162.38,110.71L162.46,107.38"/><path d="M165.69,110.63L166.62,109.76"/><path d="M173.55,91.74L173.33,93.27L173.50,93.34"/><path d="M175.22,109.28L175.25,108.34L175.22,109.28"/><path d="M175.80,106.10L174.70,106.53L175.26,108.13L175.25,108.34"/><path d="M180.91,96.57L179.25,96.58L178.48,95.88L180.03,94.61L181.03,93.18"/><path d="M181.51,108.33L181.55,107.26L180.41,107.08"/><path d="M186.13,101.92L185.84,102.78L182.96,103.10L179.98,103.09L179.95,104.22L181.23,105.11L182.58,106.58L181.55,107.26"/><path d="M179.98,103.09L179.36,103.81L179.95,104.22"/><path d="M185.62,97.70L183.44,98.69L180.90,99.42L180.99,100.22L183.71,100.93L185.46,101.65"/><path d="M182.58,106.58L182.51,108.28"/><path d="M185.76,104.90L185.84,102.78"/></g><g style="stroke:#000000;stroke-width:0.529"><path d="M166.91,92.19L166.61,92.17L165.46,90.73L163.78,89.43L162.18,89.53L161.38,90.99L161.19,92.53L159.81,92.81L157.54,91.78L154.94,91.00L153.63,91.49L153.57,94.94L151.56,94.67L148.59,94.61L147.88,95.38L147.83,99.07L146.23,99.47L146.07,111.65"/><path d="M186.03,104.52L186.13,101.92L185.46,101.65L185.62,97.70L185.12,96.86L182.20,96.56L180.91,96.57L181.03,93.18L179.87,92.54L177.11,92.98L174.60,93.72L173.50,93.34L173.55,91.74L173.17,90.21L171.61,89.91L169.62,90.98L168.10,92.26L167.89,92.25"/></g></g><g id="Actor_.4"><g style="stroke:#000000;stroke-width:0.529"><path d="M138.77,131.13L139.47,133.43L143.88,137.97L150.74,141.52L153.19,142.14"/></g></g><g id="Actor_.5"><g style="stroke:#000000;stroke-width:0.176"><path d="M170.04,103.01L168.24,103.43L165.94,103.52L163.69,103.20L162.45,102.77"/><path d="M164.18,95.28L162.80,95.52L163.36,96.33L165.40,95.97L165.40,95.07L164.18,95.28"/><path d="M165.40,95.97L165.96,95.87L166.95,97.27L167.69,97.14L167.41,96.74L167.46,95.85L166.86,95.95L166.90,94.81L165.92,93.41L165.87,94.56L166.86,95.95"/><path d="M165.87,94.56L165.13,94.69L165.40,95.07"/><path d="M165.92,93.41L164.41,93.67L165.13,94.69"/><path d="M167.46,95.85L167.47,95.61L168.45,97.01L167.69,97.14"/><path d="M167.47,95.61L169.46,95.26L169.49,94.35L166.90,94.81"/><path d="M169.49,94.35L170.06,95.16L169.46,95.26"/></g><g style="stroke:#000000;stroke-width:0.529"><path d="M170.04,103.01L170.32,102.95L171.96,102.13L172.01,102.10L173.04,101.03L173.07,100.97L173.38,99.75L173.39,99.68L173.49,96.52L173.43,96.17L172.97,94.97L172.80,94.68L171.67,93.64L171.45,93.48L169.82,92.70L167.83,92.24L165.69,92.13L163.63,92.38L161.86,92.99L161.65,93.12L160.31,94.04L160.14,94.31L159.44,95.45L159.37,95.80L159.30,98.96L159.36,100.20L159.37,100.27L159.40,100.33L160.21,101.50L161.73,102.51L162.45,102.77"/></g></g><g id="Actor_304.1"><g style="stroke:#000000;stroke-width:0.176"><path d="M262.47,267.83L263.20,260.64L202.95,215.91L149.65,197.59L145.97,195.82L143.39,193.46L142.15,190.76"/><path d="M263.20,260.64L287.00,262.29L297.37,256.13"/><path d="M286.15,269.46L287.00,262.29"/></g><g style="stroke:#000000;stroke-width:0.529"><path d="M297.37,256.13L296.47,263.27L286.15,269.46L262.47,267.83L202.56,222.98L149.53,204.63L145.88,202.85L143.31,200.49L142.07,197.77L142.15,190.76"/></g></g><g id="Actor_200.2"><g style="stroke:#000000;stroke-width:0.176"><path d="M247.28,100.46L246.81,101.09L245.96,101.57L244.84,101.87L243.55,101.94L242.25,101.78L241.07,101.41L240.14,100.86L239.57,100.21L239.43,99.86L239.41,99.51"/></g><g style="stroke:#000000;stroke-width:0.529"><path d="M247.10,102.71L247.28,100.46L247.33,99.77L246.95,99.09L246.18,98.48L245.12,98.02L243.87,97.75L242.56,97.71L241.34,97.89L240.35,98.28L239.68,98.84L239.41,99.51L239.24,101.76"/></g></g><g id="Actor_.6"><g style="stroke:#000000;stroke-width:0.176"><path d="M180.08,75.18L179.88,76.40L178.95,77.50L177.37,78.39L149.29,89.66L147.14,90.27L144.72,90.49L142.26,90.31L140.01,89.74L138.19,88.84L124.87,79.90L124.51,79.58L124.18,79.13L123.92,78.59L123.88,78.45L123.75,78.02L123.70,77.48L123.68,67.95L123.98,65.74L124.86,63.52L125.00,63.31L126.24,61.51L127.98,59.89L129.90,58.85L158.24,48.29L160.06,47.93L161.69,48.26"/></g><g style="stroke:#000000;stroke-width:0.529"><path d="M153.61,92.33L149.22,94.11L147.08,94.72L144.67,94.94L142.22,94.76L139.97,94.19L138.16,93.29L124.88,84.32L123.54,83.12L122.32,81.45L121.36,79.47L120.74,77.37L120.52,75.35L120.48,65.84L120.78,63.64L121.66,61.42L123.03,59.41L124.77,57.80L126.69,56.76L155.02,46.28L156.84,45.92L158.47,46.26L161.69,48.26L162.97,49.25L163.76,50.78L164.00,52.72L163.77,62.06L163.82,62.59L163.98,63.14L164.23,63.66L164.55,64.10L164.91,64.41L171.74,68.74"/><path d="M156.07,91.34L177.23,82.77L178.80,81.88L179.73,80.77L179.93,79.55L180.08,75.18L179.53,73.98L178.30,72.90L177.24,72.23"/></g></g><g id="Actor_304.2"><g style="stroke:#000000;stroke-width:0.176"><path d="M323.79,126.42L310.52,109.50"/><path d="M330.24,142.50L330.96,137.25"/><path d="M333.88,137.00L342.35,140.68L341.37,147.37"/><path d="M342.35,140.68L355.94,141.77L384.90,159.19L383.70,165.95"/><path d="M354.90,148.46L355.94,141.77"/><path d="M384.90,159.19L386.56,170.68L387.57,172.65L386.34,179.46"/><path d="M387.57,172.65L390.88,173.31L391.90,175.29L395.22,175.96L393.94,182.78"/><path d="M389.63,180.13L390.88,173.31"/><path d="M390.65,182.11L391.90,175.29"/><path d="M394.98,184.78L396.26,177.94L395.22,175.96"/><path d="M396.26,177.94L399.59,178.62L400.64,180.62L403.98,181.29L402.66,188.14"/><path d="M398.29,185.45L399.59,178.62"/><path d="M399.33,187.46L400.64,180.62"/><path d="M403.72,190.16L405.05,183.31L403.98,181.29"/><path d="M405.05,183.31L408.41,183.99L407.06,190.84"/><path d="M408.41,183.99L416.79,179.04"/></g><g style="stroke:#000000;stroke-width:0.529"><path d="M306.84,109.78L306.69,111.33L307.74,113.51L318.12,126.88"/><path d="M326.45,137.63L330.24,142.50L341.37,147.37L354.90,148.46L383.70,165.95L385.34,177.49L386.34,179.46L389.63,180.13L390.65,182.11L393.94,182.78L394.98,184.78L398.29,185.45L399.33,187.46L402.66,188.14L403.72,190.16L407.06,190.84L415.41,185.86L416.79,179.04L414.50,166.60L355.25,131.40"/><path d="M331.05,102.59L331.92,103.34L347.23,121.98"/></g></g><g id="Actor_304.3"><g style="stroke:#000000;stroke-width:0.176"><path d="M142.22,183.67L143.47,186.37L146.07,188.72L149.76,190.48L203.33,208.77L263.93,253.37L287.86,255.04L287.00,262.29"/><path d="M224.93,210.03L224.91,210.37"/><path d="M263.20,260.64L263.93,253.37"/><path d="M287.86,255.04L298.28,248.91"/></g><g style="stroke:#000000;stroke-width:0.529"><path d="M145.20,177.48L144.05,178.33L142.43,180.90L142.22,183.67L142.15,190.76L143.39,193.46L145.97,195.82L149.65,197.59L202.95,215.91L263.20,260.64L287.00,262.29L297.37,256.13L298.28,248.91L297.41,246.49L293.78,245.70L292.93,243.30L289.32,242.52L288.49,240.14L284.89,239.36L284.07,237.00L280.48,236.22L279.68,233.88L276.13,233.11L254.18,231.57L224.91,210.37L225.33,202.56"/><path d="M171.65,177.64L206.80,189.41"/></g></g><g id="Actor_.7"><g style="stroke:#000000;stroke-width:0.176"><path d="M174.21,78.89L172.52,79.29L170.33,79.40L168.16,79.13L166.59,78.62"/><path d="M167.92,71.44L167.08,71.51L167.42,72.29L169.67,72.09L169.67,71.28L167.92,71.44"/><path d="M169.67,72.09L170.02,72.06L170.62,73.40L171.59,73.32L171.46,73.02L171.50,72.23L171.12,72.27L171.17,71.15L170.57,69.82L169.08,69.95L169.67,71.28"/><path d="M169.55,71.02L170.53,70.94L170.57,69.82"/><path d="M171.59,73.32L172.12,73.27L171.52,71.92L174.11,71.69L173.76,70.92L171.17,71.15"/><path d="M171.52,71.92L171.50,72.23"/><path d="M171.12,72.27L170.53,70.94"/><path d="M173.72,71.73L173.76,70.92"/></g><g style="stroke:#000000;stroke-width:0.529"><path d="M174.21,78.89L174.48,78.83L176.00,78.05L176.05,78.02L176.97,77.02L177.01,76.96L177.24,75.77L177.34,72.69L177.29,72.35L176.78,71.24L176.63,70.96L175.48,70.01L175.28,69.85L173.68,69.15L171.75,68.74L169.70,68.66L167.74,68.92L166.08,69.49L165.87,69.63L164.65,70.50L164.47,70.76L163.87,71.83L163.80,72.16L163.73,75.25L163.85,76.39L163.86,76.46L163.90,76.51L164.74,77.59L164.78,77.62L166.24,78.51L166.59,78.62"/></g></g><g id="Actor_.8"><g style="stroke:#000000;stroke-width:0.176"><path d="M150.28,88.51L148.34,88.97L146.09,89.07L143.89,88.79L142.49,88.33"/><path d="M143.66,81.45L143.04,81.62L143.84,82.33L145.40,81.89L145.39,80.95L143.66,81.45"/><path d="M145.39,80.95L144.97,80.58L145.35,80.47L145.37,79.34L144.01,79.73L144.97,80.58"/><path d="M145.35,80.47L146.72,81.70L146.74,80.57L145.37,79.34"/><path d="M145.40,81.89L146.19,81.66L147.58,82.90L147.95,82.80L147.50,82.39L147.53,81.46L146.72,81.70"/><path d="M146.74,80.57L149.08,79.90L149.06,80.84L147.54,81.27L148.94,82.51L147.95,82.80"/><path d="M147.54,81.27L147.53,81.46"/><path d="M149.06,80.84L149.88,80.61L149.08,79.90"/></g><g style="stroke:#000000;stroke-width:0.529"><path d="M142.49,88.33L141.96,88.16L140.51,87.23L140.46,87.20L139.66,86.09L139.62,86.03L139.61,85.96L139.54,84.78L139.57,81.66L139.63,81.32L140.30,80.22L140.47,79.95L141.77,79.06L141.97,78.92L143.69,78.33L145.71,78.06L147.81,78.15L149.76,78.58L151.36,79.31L151.58,79.46L152.70,80.45L152.87,80.73L153.33,81.88L153.39,82.22L153.33,85.34L153.32,85.41L153.04,86.57L153.00,86.63L152.01,87.67L151.96,87.70L150.36,88.49L150.28,88.51"/></g></g><g id="Actor_200.3"><g style="stroke:#000000;stroke-width:0.176"><path d="M184.63,123.96L184.97,124.71L185.74,125.36L186.83,125.85L188.14,126.13L189.51,126.17L190.81,125.96L191.89,125.52L192.63,124.90L192.95,124.18"/></g><g style="stroke:#000000;stroke-width:0.529"><path d="M192.85,126.49L192.95,124.18L192.94,123.80L192.82,123.42L192.25,122.72L191.31,122.14L190.10,121.75L188.75,121.59L187.40,121.68L186.20,122.01L185.28,122.54L184.73,123.21L184.63,123.96L184.54,126.28"/></g></g><g id="Actor_200.4"><g style="stroke:#000000;stroke-width:0.176"><path d="M220.66,190.51L220.47,191.40L219.81,192.19L218.75,192.79L217.39,193.13L215.90,193.19L214.43,192.94L213.14,192.42L212.18,191.69L211.85,191.27L211.64,190.82L211.59,189.91"/></g><g style="stroke:#000000;stroke-width:0.529"><path d="M220.50,192.92L220.66,190.51L220.35,189.61L219.59,188.80L218.45,188.17L217.06,187.79L215.57,187.69L214.13,187.89L212.91,188.36L212.03,189.06L211.59,189.91L211.45,192.33"/></g></g><g id="Actor_200.5"><g style="stroke:#000000;stroke-width:0.176"><path d="M239.95,140.72L239.95,141.51L240.40,142.27L241.26,142.94L242.43,143.44L243.79,143.70L245.18,143.71L246.45,143.46L247.48,142.97L247.85,142.66L248.13,142.32L248.35,141.55"/></g><g style="stroke:#000000;stroke-width:0.529"><path d="M248.16,143.88L248.35,141.55L248.11,140.76L247.44,140.04L246.41,139.46L245.14,139.08L243.75,138.94L242.41,139.06L241.25,139.43L240.40,140.00L239.95,140.72L239.77,143.05"/></g></g><g id="Actor_200.6"><g style="stroke:#000000;stroke-width:0.176"><path d="M261.19,131.04L261.45,131.80L262.13,132.51L263.07,133.02L263.16,133.08L264.43,133.45L265.80,133.58L267.12,133.46L268.24,133.09L269.05,132.53L269.46,131.83"/></g><g style="stroke:#000000;stroke-width:0.529"><path d="M269.24,134.13L269.46,131.83L269.42,131.07L268.94,130.33L268.07,129.69L266.91,129.22L265.58,128.96L264.22,128.96L262.99,129.20L262.46,129.41L262.01,129.66L261.39,130.30L261.19,131.04L260.98,133.34"/></g></g><g id="Actor_200.7"><g style="stroke:#000000;stroke-width:0.176"><path d="M350.70,125.24L350.39,125.92L349.67,126.47L348.62,126.82L347.36,126.93L346.02,126.80L344.74,126.44L343.68,125.89L342.94,125.21L342.60,124.47L342.70,123.75"/></g><g style="stroke:#000000;stroke-width:0.529"><path d="M350.36,127.51L350.70,125.24L350.57,124.50L350.02,123.78L349.10,123.16L347.92,122.70L346.60,122.46L345.29,122.45L344.12,122.69L343.64,122.89L343.23,123.13L342.70,123.75L342.37,126.01"/></g></g><g id="Actor_.9"><g style="stroke:#000000;stroke-width:0.176"><path d="M143.02,50.72L138.98,52.21"/></g><g style="stroke:#000000;stroke-width:0.529"><path d="M129.60,87.51L129.59,93.96"/><path d="M145.28,49.88L143.36,48.66L141.69,48.33L139.82,48.69L135.78,50.17L133.89,51.19L132.19,52.78L130.83,54.76L130.61,55.31"/></g></g><g id="Actor_.10"><g style="stroke:#000000;stroke-width:0.176"><path d="M139.93,64.29L139.99,63.09L140.52,61.43L141.45,59.90L142.66,58.66L142.68,58.64L144.01,57.85"/><path d="M146.43,63.64L146.99,65.62L146.96,65.64L146.92,65.50L144.90,66.92L144.58,65.77L146.59,64.35L146.03,62.35L146.06,62.33L146.12,62.56L147.12,63.15L146.43,63.64L148.08,64.69L150.09,63.28L149.05,62.62L147.76,63.54L147.12,63.15"/><path d="M146.99,65.62L148.64,66.67L147.48,67.49L146.96,65.64"/><path d="M146.92,65.50L145.93,64.82"/><path d="M147.76,63.54L147.19,61.53L146.06,62.33"/><path d="M148.64,66.67L148.08,64.69"/><path d="M149.05,62.62L149.77,62.13L150.09,63.28"/></g><g style="stroke:#000000;stroke-width:0.529"><path d="M139.93,64.29L139.91,64.67L140.30,66.02L140.31,66.07L141.13,67.03L141.17,67.07L143.41,68.53L144.56,69.00L144.83,69.11L146.17,69.04L146.42,69.02L147.78,68.44L147.91,68.33L149.12,67.36L150.11,66.08L150.79,64.61L150.81,64.51L151.12,62.93L150.98,61.50L150.89,61.26L150.30,60.10L150.09,59.89L149.11,59.15L146.85,57.71L146.80,57.69L145.53,57.47L145.48,57.48L144.08,57.80L144.01,57.85"/></g></g><g id="Actor_302.0"><g style="stroke:#000000;stroke-width:0.176"><path d="M145.26,172.63L145.59,174.84L147.07,176.89L149.56,178.58L152.81,179.75L156.50,180.26L160.26,180.08L163.71,179.22L166.50,177.77L168.37,175.87L187.57,146.40L188.39,147.94L189.69,149.39L191.48,149.40L191.17,156.41"/><path d="M147.81,133.39L147.91,126.45L151.42,127.28L155.16,127.61L155.62,129.29L152.17,130.11L149.20,131.39L149.68,132.34L149.57,139.30"/><path d="M149.17,133.71L149.20,131.39"/><path d="M147.89,125.49L147.91,126.45"/><path d="M148.95,120.64L151.94,121.92L155.40,122.77L155.06,124.41L151.35,124.70L148.88,125.26"/><path d="M149.68,132.34L153.46,132.65L157.24,132.43L158.47,134.01L157.20,134.58L157.24,132.43"/><path d="M152.78,173.10L152.75,173.45L152.79,173.54"/><path d="M152.57,119.51L153.07,119.47L156.79,119.73L157.89,118.22L154.93,116.94L152.64,115.31"/><path d="M154.13,175.06L154.02,175.01L153.67,174.71"/><path d="M152.99,173.93L153.17,174.29L153.24,174.36"/><path d="M155.35,175.56L155.23,175.54L154.72,175.32"/><path d="M154.07,144.88L154.19,137.89L157.99,137.64L161.53,136.87L161.46,139.82L163.46,138.25L161.53,136.87"/><path d="M153.23,139.60L153.28,137.03L154.19,137.89"/><path d="M153.28,137.03L155.54,135.33L157.20,134.58"/><path d="M156.55,175.78L156.72,175.80"/><path d="M155.13,129.40L155.16,127.61"/><path d="M158.25,175.75L158.13,175.78L157.51,175.79"/><path d="M159.61,175.43L159.51,175.48L158.93,175.61"/><path d="M160.70,174.86L160.63,174.93L160.17,175.16"/><path d="M159.84,144.18L159.89,141.98L161.19,142.70L161.04,148.79L166.15,141.38L163.79,142.17L161.19,142.70"/><path d="M159.89,141.98L161.26,139.98L161.46,139.82"/><path d="M158.68,110.79L160.14,112.64L162.41,114.27L160.65,115.54L158.59,115.09"/><path d="M161.42,174.11L161.39,174.19L161.08,174.49"/><path d="M161.55,173.72L161.69,173.34L161.67,173.26"/><path d="M161.04,148.79L160.58,149.46"/><path d="M166.52,112.04L168.63,111.16L167.19,109.31L166.64,107.35"/><path d="M175.60,107.13L176.13,109.08L175.53,109.22"/><path d="M184.57,126.34L184.57,126.41L184.74,126.71"/><path d="M185.71,127.70L185.81,127.77L186.28,127.97"/><path d="M184.95,127.08L184.99,127.14L185.32,127.40"/><path d="M187.28,153.40L187.57,146.40"/><path d="M186.82,128.18L186.95,128.24L187.51,128.34"/><path d="M188.84,128.47L188.27,128.48L188.13,128.45"/><path d="M189.39,156.41L189.69,149.39"/><path d="M190.30,128.33L189.65,128.47L189.50,128.47"/><path d="M191.48,149.40L192.81,147.37L193.20,145.21L192.88,152.20"/><path d="M190.78,128.24L190.92,128.21L191.34,128.01"/><path d="M192.22,127.47L191.94,127.74L191.84,127.78"/><path d="M193.20,145.21L196.24,144.99L197.96,147.00L200.49,148.74L202.19,148.48L201.83,155.48"/><path d="M192.71,126.79L192.61,127.10L192.53,127.18"/><path d="M192.86,126.36L192.85,126.37"/><path d="M195.91,151.97L196.24,144.99"/><path d="M198.66,107.31L198.45,109.26L198.57,109.28"/><path d="M200.14,155.74L200.49,148.74"/><path d="M202.27,150.93L202.51,146.30L202.19,148.48"/><path d="M202.51,146.30L201.86,144.14L204.64,143.47L207.20,145.18L210.40,146.51L211.88,146.01L211.77,147.85"/><path d="M204.27,150.45L204.64,143.47"/><path d="M207.59,107.67L207.36,109.61L206.23,111.44L207.36,111.90"/><path d="M210.00,153.49L210.40,146.51"/><path d="M210.83,143.42L209.55,141.82L211.87,140.78L211.61,145.19L211.17,143.84L210.83,143.42"/><path d="M211.88,146.01L211.61,145.19"/><path d="M211.87,140.78L215.07,142.06L218.69,142.89L219.85,142.19L218.18,140.19L215.72,138.46L217.41,137.10L221.02,137.89L224.79,138.17L224.34,145.09"/><path d="M216.01,111.21L214.87,113.04L212.90,114.62L214.84,115.91L215.74,115.72"/><path d="M218.25,149.84L218.69,142.89"/><path d="M217.26,139.54L217.41,137.10"/><path d="M222.70,115.79L220.70,117.37L218.00,118.61L219.32,120.12L222.43,119.94"/><path d="M219.69,144.62L219.85,142.19"/><path d="M219.96,134.29L220.92,132.72L220.80,134.64L219.96,134.29"/><path d="M220.80,134.64L223.07,135.62L225.55,137.32L224.79,138.17"/><path d="M220.92,132.72L224.67,132.98L228.33,132.70L228.65,131.77L225.54,130.47L222.08,129.64L222.19,127.97L222.02,129.54L222.02,129.62L222.08,129.64"/><path d="M227.18,121.13L224.45,122.36L221.18,123.15L221.78,124.79L225.47,125.12L226.89,125.45"/><path d="M222.19,127.97L225.82,127.68L229.12,126.89"/><path d="M225.39,139.78L225.55,137.32"/><path d="M227.86,139.60L228.33,132.70"/><path d="M228.51,133.78L228.65,131.77"/></g><g style="stroke:#000000;stroke-width:0.529"><path d="M166.52,112.04L166.33,112.12L163.31,110.92L159.87,110.15L158.68,110.79L158.59,115.09L157.16,114.78L153.47,114.51L152.64,115.31L152.57,119.51L149.37,119.73L148.95,120.64L148.88,125.26L147.89,125.49L147.79,132.42L147.81,133.39L149.17,133.71L149.10,138.35L149.57,139.30L153.23,139.60L153.16,144.01L154.07,144.88L157.85,144.63L159.84,144.18L159.74,148.99L160.58,149.46L146.09,170.50L145.26,172.63L145.17,179.80L145.50,182.02L146.97,184.07L149.44,185.77L152.68,186.94L156.35,187.46L160.09,187.27L163.52,186.41L166.30,184.94L168.17,183.04L187.28,153.40L188.10,154.95L189.39,156.41L191.17,156.41L192.50,154.37L192.88,152.20L195.91,151.97L197.63,153.99L200.14,155.74L201.83,155.48L202.15,153.29L202.27,150.93L204.27,150.45L206.82,152.16L210.00,153.49L211.47,152.98L211.77,147.85L214.65,149.02L218.25,149.84L219.41,149.14L219.69,144.62L220.58,144.82L224.34,145.09L225.09,144.24L225.39,139.78L227.86,139.60L228.18,138.66L228.51,133.78L228.65,133.75L229.12,126.89L228.99,125.94L226.89,125.45L227.18,121.13L226.61,120.22L222.94,119.91L222.43,119.94"/><path d="M215.93,112.64L216.01,111.21L214.74,110.56L211.47,111.27L208.67,112.43L207.36,111.90L207.59,107.67L206.09,107.21L203.32,108.37L201.21,109.88L198.57,109.28L198.66,107.31L197.97,105.38L196.33,105.13L194.25,106.65L192.96,108.43L190.03,108.20L189.32,106.26L187.76,104.46L186.08,104.45L184.81,106.23L184.42,108.16L181.52,108.34L179.93,106.53L177.59,104.98L175.98,105.20L175.60,107.13L175.53,109.22L173.45,109.67L171.07,108.11L168.09,106.91L166.64,107.35L166.58,109.63"/><path d="M222.65,116.43L222.70,115.79L221.75,114.98L218.16,115.20L215.74,115.72"/></g></g><g id="Actor_303.0"><g style="stroke:#000000;stroke-width:0.176"><path d="M205.04,104.39L205.39,105.28L208.94,105.79L212.54,105.83L212.44,107.71L210.59,108.35L208.25,109.76L208.12,112.20"/><path d="M205.27,107.55L205.39,105.28"/><path d="M208.92,112.32L209.02,110.60L212.65,110.60L216.09,110.12L215.94,112.63L215.48,112.92L213.95,114.66L213.91,115.29"/><path d="M209.02,110.60L208.25,109.76"/><path d="M212.44,107.71L213.53,107.34L212.54,105.83"/><path d="M211.63,97.68L211.35,102.80"/><path d="M213.95,114.66L215.09,115.39L218.54,114.88L221.57,113.90L223.83,115.03L222.36,116.79L221.76,118.73L221.68,119.99"/><path d="M215.09,115.39L215.06,115.86"/><path d="M215.94,112.63L217.77,111.49L216.09,110.12"/><path d="M219.83,103.10L219.93,103.81L220.45,104.48L221.33,105.04L222.49,105.44L223.79,105.62L225.09,105.57L226.26,105.29L227.15,104.82L227.68,104.20L227.79,103.50L227.47,102.81L226.76,102.19L225.73,101.71L224.49,101.42L223.18,101.35L221.93,101.51L220.89,101.89L220.16,102.44L219.83,103.10"/><path d="M221.76,118.73L223.20,119.30L226.21,118.29L228.60,116.89L228.14,123.70"/><path d="M221.50,115.00L221.57,113.90"/><path d="M223.16,119.93L223.20,119.30"/><path d="M228.60,116.89L231.29,117.69L230.76,119.65L231.14,121.67L232.77,122.03L235.13,120.59L236.69,118.86L236.19,125.67"/><path d="M230.66,128.50L231.14,121.67"/><path d="M230.43,124.38L230.76,119.65"/><path d="M232.29,128.86L232.77,122.03"/><path d="M236.69,118.86L239.61,119.27L240.06,121.29L241.41,123.24L243.11,123.36L242.58,130.18"/><path d="M239.10,126.08L239.61,119.27"/><path d="M239.80,102.92L239.59,102.74L239.52,102.59"/><path d="M240.68,103.53L240.31,103.35L240.16,103.23"/><path d="M239.26,102.00L239.27,102.07"/><path d="M240.88,130.07L241.41,123.24"/><path d="M242.34,104.07L242.59,104.13L242.99,104.15"/><path d="M241.14,103.74L241.35,103.84L241.73,103.92"/><path d="M243.11,123.36L244.63,121.60L245.26,119.65L244.72,126.46"/><path d="M243.64,104.18L243.91,104.19L244.28,104.14"/><path d="M245.26,119.65L248.19,119.64L249.59,121.58L251.80,123.32L251.23,130.14"/><path d="M245.45,103.91L245.14,104.03L244.89,104.06"/><path d="M245.96,103.73L246.17,103.65L246.37,103.49"/><path d="M247.64,126.45L248.19,119.64"/><path d="M246.73,103.21L246.87,103.10L246.96,102.90"/><path d="M247.14,102.25L247.17,102.44L247.11,102.57"/><path d="M251.80,123.32L253.45,123.19L252.87,130.01"/><path d="M253.61,125.93L254.01,121.23L253.45,123.19"/><path d="M260.95,128.47L261.54,121.91L258.64,120.51L256.39,118.79L253.66,119.22L254.01,121.23"/><path d="M255.81,125.58L256.39,118.79"/><path d="M259.16,101.65L258.61,100.99L258.47,100.29L258.76,99.64L259.45,99.09L260.45,98.72L261.67,98.56L262.96,98.63L264.20,98.91L265.24,99.39L265.98,100.00L266.34,100.69L266.27,101.37L265.78,101.98L264.93,102.45L263.80,102.72L262.52,102.77L261.23,102.59L260.07,102.20L259.16,101.65"/><path d="M263.01,123.55L263.63,116.78L261.29,117.59L262.60,119.55L263.02,121.55L261.54,121.91"/><path d="M262.83,123.62L263.02,121.55"/><path d="M263.63,116.78L266.55,118.16L269.92,119.13L269.27,125.91"/><path d="M268.66,114.23L267.61,114.90L269.16,116.16L269.39,113.77L268.66,114.23"/><path d="M269.92,119.13L271.11,118.56L269.75,116.64L269.16,116.16"/><path d="M275.67,121.96L276.35,115.21L272.76,114.72L269.39,113.77"/><path d="M270.86,121.12L271.11,118.56"/><path d="M273.11,111.83L273.28,110.00L272.18,111.36L274.99,112.77L277.18,114.48L276.35,115.21"/><path d="M273.28,110.00L276.85,110.46L280.41,110.43L279.72,117.15"/><path d="M275.00,106.47L274.92,107.29L274.71,107.23L275.08,105.73L275.00,106.47"/><path d="M274.92,107.29L277.99,108.22L280.83,109.60L280.58,111.95"/><path d="M331.76,97.36L331.23,99.00L329.75,100.37L327.43,101.37L324.51,101.87L281.87,105.04L281.87,105.17L278.60,105.68L275.08,105.73"/><path d="M276.91,117.18L277.18,114.48"/><path d="M280.41,110.43L280.83,109.60"/><path d="M281.87,105.17L281.20,111.73"/><path d="M318.94,97.68L319.25,97.86L319.45,97.93"/><path d="M318.37,97.35L318.29,97.29"/><path d="M317.55,96.11L317.52,95.99L317.59,95.78"/><path d="M317.82,96.78L317.71,96.67L317.65,96.46"/><path d="M320.03,98.12L320.42,98.25L320.64,98.28"/><path d="M321.91,98.41L321.69,98.42L321.27,98.36"/><path d="M322.53,98.39L322.94,98.37L323.13,98.33"/><path d="M324.56,97.80L324.81,97.65L324.88,97.54"/><path d="M323.66,98.20L324.02,98.11L324.16,98.03"/><path d="M325.23,96.94L325.23,97.05L325.09,97.25"/></g><g style="stroke:#000000;stroke-width:0.529"><path d="M262.40,128.32L262.83,123.62L263.01,123.55L265.91,124.93L269.27,125.91L270.46,125.34L270.86,121.12L272.10,121.47L275.67,121.96L276.50,121.22L276.91,117.18L279.72,117.15L280.14,116.31L280.58,111.95L281.18,111.86L281.20,111.73L323.64,108.50L326.55,107.99L328.86,106.99L330.35,105.60L330.87,103.96L331.76,97.36L331.27,95.64L329.81,93.99L327.55,92.59L324.70,91.55L321.53,90.98L318.35,90.94L269.66,94.42L263.27,90.36L255.16,87.36L246.04,85.67L236.68,85.43L227.85,86.65L220.31,89.25L214.73,93.03L211.63,97.68L211.34,102.80L209.47,103.11L207.13,103.64L205.04,104.39L204.87,107.72"/><path d="M260.59,128.55L258.04,127.30L255.81,125.58L253.61,125.93L253.43,128.04L252.87,130.01L251.23,130.14L249.03,128.39L247.64,126.45L244.72,126.46L244.09,128.42L242.58,130.18L240.88,130.07L239.54,128.11L239.10,126.08L236.19,125.67L234.63,127.41L232.29,128.86L230.66,128.50L230.28,126.47L230.43,124.38L228.14,123.70L226.96,124.40"/></g></g><g/><g><g/><g><path style="fill:#ffffff" d="M273.95,28.46L414.87,28.46L414.87,56.11L273.95,56.11z"/><text xml:space="preserve" fill="#000000" stroke-width="0" x="277.41" y="47.47" font-size="16.84" opacity="1.00" font-family="MS Shell Dlg">Gripper Assembly</text></g></g><g><g/><g><path style="stroke:#ff0000;stroke-width:0.548;fill:#ffff57" d="M9.81,24.79L52.11,24.79L52.11,41.72L9.81,41.72z"/><text xml:space="preserve" fill="#000000" stroke-width="0" x="11.92" y="36.43" font-size="10.26" opacity="1.00" font-family="MS Shell Dlg">Go back</text></g></g><g id="paperID" visibility="hidden" opacity="0.00" transform="scale(0.000100)"><path style="stroke:#000000;stroke-width:0.500;fill:#e6e6e6;fill-rule:evenodd" d="M-2000.00,-2000.00L2528.00,-2000.00L2528.00,2297.00L-2000.00,2297.00zM0.00,0.00L528.00,0.00L528.00,297.00L0.00,297.00z"/><path style="fill:#000000;fill-opacity:0.118" d="M3.00,297.00L528.00,297.00L528.00,3.00L531.00,3.00L531.00,300.00L3.00,300.00z"/></g><g id="hotspot.0" onmouseover="ShowHotSpot(evt,'0')" onmouseout="HideHotSpot(evt,'0')" onmousemove="ShowToolTip(evt,'0',&quot;Copy 1 of 2D Text 1&quot;)" opacity="0"><a xlink:href="Top_Level_Gripper.svg"><path style="fill:#00ff00;fill-rule:evenodd" d="M52.90,24.42L52.73,42.26L9.25,42.42L9.27,23.98L52.43,23.95z"/></a></g><g id="hotspot.1" onmouseover="ShowHotSpot(evt,'1')" onmouseout="HideHotSpot(evt,'1')" onmousemove="ShowToolTip(evt,'1',&quot;Gripper_Servo_Assembly&quot;)" opacity="0"><path style="fill:#00ff00;fill-rule:evenodd" d="M143.17,137.33L149.21,140.84L153.14,142.13L153.56,144.31L154.02,144.77L157.50,144.72L159.67,146.45L160.14,149.07L160.52,149.48L145.72,171.34L144.91,177.48L142.68,180.45L142.27,185.30L141.39,185.20L139.68,183.37L139.28,158.59L136.50,156.59L136.62,152.69L139.28,151.77L139.31,151.29L137.34,151.25L136.05,151.68L133.45,153.92L132.77,153.85L130.98,152.56L130.85,147.78L139.72,143.63L139.97,135.61L141.03,135.19zM191.31,168.21L193.51,168.62L215.24,171.20L215.25,173.14L213.89,174.81L209.55,176.99L207.81,179.15L196.00,185.14L193.92,185.15L178.29,179.90L178.25,179.18L187.02,165.57z"/></g><g id="hotspot.2" onmouseover="ShowHotSpot(evt,'2')" onmouseout="HideHotSpot(evt,'2')" onmousemove="ShowToolTip(evt,'2',&quot;Pin_Large&quot;)" opacity="0"><path style="fill:#00ff00;fill-rule:evenodd" d="M323.77,92.64L325.55,93.92L324.94,97.41L323.23,98.30L320.71,98.30L318.55,97.43L317.62,96.56L318.13,93.21L319.70,92.18L322.48,92.19zM246.51,98.69L247.34,99.96L246.95,102.79L245.51,103.95L241.68,103.95L239.99,103.04L239.55,102.61L239.51,99.26L240.25,98.26L241.56,97.84L244.32,97.84zM192.19,122.61L192.68,123.43L192.69,127.12L190.79,128.26L186.98,128.26L184.83,126.94L184.78,123.12L185.98,122.15L187.28,121.72L190.05,121.72zM348.96,123.03L350.75,124.76L350.12,128.24L347.51,129.14L344.15,128.71L342.44,127.35L342.44,125.78L342.88,123.60L344.45,122.57L347.66,122.59zM268.27,129.91L269.55,131.26L268.93,134.76L267.21,135.65L263.83,135.65L261.71,134.72L261.22,133.92L261.22,130.95L262.40,129.53L263.25,129.08L266.47,129.10zM246.48,139.53L248.25,140.80L248.23,143.58L247.80,144.89L246.81,145.64L241.68,145.64L239.98,144.29L239.94,140.94L241.13,139.52L242.43,139.09L245.19,139.09zM160.52,169.04L161.80,170.73L161.41,174.00L160.79,174.68L159.09,175.60L155.28,175.59L153.13,174.27L153.13,169.63L154.71,168.61L158.35,168.18zM218.26,188.16L220.46,189.87L220.47,193.55L218.97,195.09L216.80,195.56L213.45,195.14L211.76,193.79L211.71,189.57L213.02,188.27L215.08,187.73L216.97,187.72z"/></g><g id="hotspot.3" onmouseover="ShowHotSpot(evt,'3')" onmouseout="HideHotSpot(evt,'3')" onmousemove="ShowToolTip(evt,'3',&quot;Gripper_Bracket&quot;)" opacity="0"><path style="fill:#00ff00;fill-rule:evenodd" d="M312.36,127.07L321.60,126.64L335.07,125.35L337.91,123.84L340.68,122.27L345.92,121.73L349.81,122.61L353.35,124.28L355.50,126.91L355.47,130.12L354.63,135.35L353.57,136.90L350.15,138.69L343.73,138.67L339.42,137.34L334.05,136.93L277.61,141.70L274.57,142.57L271.91,144.25L268.52,145.63L262.98,145.61L259.50,144.75L256.06,142.55L255.15,140.85L255.17,137.06L255.58,132.27L256.75,130.40L260.23,128.66L262.41,128.24L265.59,128.24L272.97,129.98L275.60,130.13L275.57,121.86L277.17,121.28L306.45,119.08zM240.84,131.28L245.48,131.28L248.63,130.82L249.13,131.69L249.15,133.19L243.30,137.82L247.37,138.65L249.95,139.54L251.75,140.78L253.46,142.98L253.43,149.22L253.02,151.85L252.15,153.59L250.63,154.67L246.90,156.15L244.10,157.69L236.06,171.79L235.45,173.53L238.67,173.83L244.63,173.86L249.81,171.66L251.26,171.19L251.26,174.40L250.85,177.04L248.91,179.44L244.61,181.21L242.16,182.68L226.54,211.28L225.21,210.73L225.23,202.91L224.80,203.45L221.30,205.66L217.26,206.39L214.78,206.39L211.72,205.99L206.57,203.32L205.21,200.78L205.23,196.11L205.65,191.32L207.44,188.77L214.84,185.32L216.83,182.96L234.33,152.31L233.88,151.28L233.89,147.92L234.35,141.87L235.48,140.38L238.64,138.77L240.48,138.19L240.06,137.77L237.34,137.38L233.06,135.15L232.18,133.86L232.16,131.42L234.62,130.39zM340.25,153.88L349.82,154.73L351.59,155.17L350.72,160.10L349.01,161.87L346.24,163.00L340.26,162.99L335.95,161.66L333.33,161.24L278.04,166.02L272.82,166.87L269.31,169.00L265.91,170.38L260.81,170.36L257.34,169.50L255.90,168.62L274.54,159.04L275.60,157.50L275.99,154.84L331.16,149.90zM186.58,165.19L186.62,166.14L178.14,179.50L177.01,179.53L172.07,177.85L172.25,176.61L181.69,162.09L182.21,162.03zM148.79,204.22L164.41,209.86L163.11,210.88L159.08,212.06L154.43,212.04L150.94,211.19L149.26,210.26L147.51,208.98L146.60,207.29L146.48,203.32L147.02,203.28zM214.80,232.05L211.30,232.03L207.40,230.72L204.77,228.57L203.90,227.27L203.94,224.16zM348.96,123.03L350.75,124.76L350.12,128.24L347.51,129.14L344.15,128.71L342.44,127.35L342.44,125.78L342.88,123.60L344.45,122.57L347.66,122.59zM268.27,129.91L269.55,131.26L268.93,134.76L267.21,135.65L263.83,135.65L261.71,134.72L261.22,133.92L261.22,130.95L262.40,129.53L263.25,129.08L266.47,129.10zM246.48,139.53L248.25,140.80L248.23,143.58L247.80,144.89L246.81,145.64L241.68,145.64L239.98,144.29L239.94,140.94L241.13,139.52L242.43,139.09L245.19,139.09zM218.26,188.16L220.46,189.87L220.47,193.55L218.97,195.09L216.80,195.56L213.45,195.14L211.76,193.79L211.71,189.57L213.02,188.27L215.08,187.73L216.97,187.72z"/></g><g id="hotspot.4" onmouseover="ShowHotSpot(evt,'4')" onmouseout="HideHotSpot(evt,'4')" onmousemove="ShowToolTip(evt,'4',&quot;Gripper_LHF_Gear&quot;)" opacity="0"><path style="fill:#00ff00;fill-rule:evenodd" d="M188.79,105.61L189.90,107.97L193.04,108.42L195.53,105.65L196.41,105.18L197.42,105.17L197.94,105.57L198.70,107.35L198.56,109.27L200.03,109.59L201.64,109.61L203.35,108.26L205.51,107.36L207.02,107.33L207.46,107.78L207.70,111.88L208.24,112.25L209.44,112.22L211.15,111.28L215.27,110.81L215.72,111.26L215.69,112.77L214.35,114.07L214.33,115.67L215.94,115.66L218.12,115.22L222.24,115.17L222.68,115.61L222.14,117.49L222.01,119.72L226.57,120.37L227.00,120.80L227.24,125.34L229.17,126.47L228.25,138.37L227.81,139.66L225.48,139.94L225.23,143.60L224.63,144.73L219.86,144.70L219.01,149.54L216.94,149.53L212.07,148.20L211.71,149.19L211.33,153.14L208.69,153.01L205.30,151.19L204.82,150.80L202.46,150.80L201.75,155.29L200.01,155.64L197.01,153.40L196.10,152.13L192.92,152.10L192.67,154.03L191.33,156.15L189.17,156.02L187.43,153.88L187.04,153.95L169.44,181.16L166.42,184.66L163.43,186.45L158.63,187.29L155.30,187.29L152.67,186.89L148.40,185.07L146.64,183.79L145.77,182.49L145.31,180.34L145.31,173.54L145.72,171.34L160.52,149.48L160.14,149.07L159.64,144.27L154.02,144.77L153.56,144.30L153.15,139.51L149.52,139.23L149.16,138.72L149.24,133.90L147.78,133.16L147.92,128.38L148.25,125.67L148.75,125.30L149.20,120.11L152.25,119.25L152.67,115.76L153.38,114.74L158.34,114.96L158.64,110.87L159.47,110.40L161.38,110.44L165.28,111.77L166.58,111.92L166.89,107.40L168.33,106.92L170.50,107.83L173.15,109.56L175.29,109.28L176.00,105.22L177.91,105.20L179.24,106.04L180.92,107.83L184.40,107.98L185.11,105.65L185.96,104.76L187.90,104.77zM192.19,122.61L192.68,123.43L192.69,127.12L190.79,128.26L186.98,128.26L184.83,126.94L184.78,123.12L185.98,122.15L187.28,121.72L190.05,121.72zM160.52,169.04L161.80,170.73L161.41,174.00L160.79,174.68L159.09,175.60L155.28,175.59L153.13,174.27L153.13,169.63L154.71,168.61L158.35,168.18z"/></g><g id="hotspot.5" onmouseover="ShowHotSpot(evt,'5')" onmouseout="HideHotSpot(evt,'5')" onmousemove="ShowToolTip(evt,'5',&quot;Gripper_RHF_Gear&quot;)" opacity="0"><path style="fill:#00ff00;fill-rule:evenodd" d="M253.43,86.99L262.55,90.03L269.04,93.96L275.44,93.94L320.30,90.90L325.52,91.75L329.82,93.97L331.61,96.51L331.59,98.85L330.75,104.52L329.68,106.06L327.13,107.85L324.50,108.26L281.48,111.71L280.65,112.17L279.80,116.97L277.17,117.38L276.82,117.90L276.48,121.03L275.86,121.74L274.29,121.73L271.12,121.28L270.76,122.26L270.37,125.34L269.84,125.70L268.18,125.67L263.84,123.84L262.85,123.85L262.56,127.08L262.11,128.37L259.92,128.26L255.61,125.59L253.73,126.08L252.99,129.67L252.47,130.05L250.85,129.98L248.28,127.31L247.78,126.52L244.99,126.45L244.32,127.95L242.86,129.96L240.84,129.97L239.51,127.83L239.11,126.06L236.51,125.65L234.80,127.12L232.45,128.71L230.73,128.36L230.26,125.65L230.45,124.35L228.65,123.87L227.37,124.04L227.00,120.80L226.57,120.37L222.01,119.72L222.14,117.49L222.68,115.61L222.24,115.17L218.12,115.22L215.94,115.66L214.33,115.67L214.35,114.07L215.69,112.77L215.72,111.26L215.27,110.81L211.15,111.28L209.44,112.22L208.24,112.25L207.70,111.88L207.46,107.78L207.02,107.33L205.21,107.56L205.10,104.37L211.33,102.78L211.71,97.52L215.19,92.75L221.60,88.73L228.10,86.54L234.62,85.69L246.48,85.69zM323.77,92.64L325.55,93.92L324.94,97.41L323.23,98.30L320.71,98.30L318.55,97.43L317.62,96.56L318.13,93.21L319.70,92.18L322.48,92.19zM246.51,98.69L247.34,99.96L246.95,102.79L245.51,103.95L241.68,103.95L239.99,103.04L239.55,102.61L239.51,99.26L240.25,98.26L241.56,97.84L244.32,97.84z"/></g><g id="hotspot.6" onmouseover="ShowHotSpot(evt,'6')" onmouseout="HideHotSpot(evt,'6')" onmousemove="ShowToolTip(evt,'6',&quot;Gripper_Tooth&quot;)" opacity="0"><path style="fill:#00ff00;fill-rule:evenodd" d="M346.86,121.33L346.81,121.88L344.04,121.73L340.68,122.27L337.91,123.84L335.07,125.35L321.60,126.64L312.36,127.07L306.83,119.56L306.39,118.71L306.40,113.61L306.82,110.12L308.87,109.57L324.50,108.26L327.13,107.85L329.68,106.06L330.75,104.53L331.16,102.57zM411.48,164.71L414.55,166.85L415.83,173.40L416.70,179.60L414.09,192.64L406.15,197.30L404.09,197.29L402.37,196.84L401.47,195.14L398.41,194.29L397.14,192.52L393.57,191.31L392.42,189.42L390.17,189.06L389.37,188.57L388.47,186.86L385.01,185.97L384.10,183.84L382.38,172.54L353.76,155.14L340.25,153.88L329.45,149.05L325.55,144.27L321.02,138.20L334.05,136.93L339.42,137.34L343.73,138.67L350.15,138.69L353.57,136.90L354.63,135.35L355.36,131.67L355.87,131.63zM206.51,189.44L205.65,191.32L205.23,196.11L205.21,200.78L206.57,203.32L211.72,205.99L214.78,206.39L217.26,206.39L221.30,205.66L224.80,203.45L225.23,202.91L225.21,210.73L253.46,231.12L255.16,231.59L273.84,232.88L279.49,233.75L280.37,235.91L281.19,236.39L283.42,236.76L283.92,237.13L285.12,239.40L288.57,240.30L289.34,242.57L292.93,243.32L293.69,245.60L297.38,246.68L298.16,248.51L297.72,253.86L296.28,263.28L286.30,269.41L266.89,268.06L262.14,267.60L203.07,223.32L193.50,219.87L148.79,204.22L144.91,202.03L143.16,200.30L142.25,198.17L142.27,185.26L142.68,180.45L144.73,177.69L145.77,182.49L146.64,183.79L148.40,185.07L152.67,186.89L155.30,187.29L158.63,187.29L163.43,186.45L166.42,184.66L169.44,181.16L171.58,177.73z"/></g><g id="ToolTip" visibility="hidden" opacity="0" transform="translate(0,0)"><rect id="ToolTipShadow" opacity="0.20" fill="black" stroke="none" x="0" y="0" width="30" height="8"/><rect id="ToolTipBG" fill="#ffffe1" stroke="black" x="0" y="0" width="30" height="8"/><text xml:space="preserve" id="ToolTipText" fill="black" x="0" y="0" width="30" height="8">tooltip</text></g></g></svg>
